<svg xmlns="http://www.w3.org/2000/svg" width="142.798" height="361.377" viewBox="0 0 142.798 361.377">
  <g id="Character_1" data-name="Character 1" transform="translate(-148.469 -116.93)">
    <g id="Group_871" data-name="Group 871">
      <g id="Group_691" data-name="Group 691">
        <g id="Group_675" data-name="Group 675">
          <g id="Group_674" data-name="Group 674">
            <g id="Group_673" data-name="Group 673">
              <path id="Path_190" data-name="Path 190" d="M160.62,410.727l-2.887,53.514,19.384,4.683,3.86-52.276Z" fill="#aa6550"/>
            </g>
          </g>
        </g>
        <g id="Group_690" data-name="Group 690">
          <g id="Group_678" data-name="Group 678">
            <g id="Group_677" data-name="Group 677">
              <g id="Group_676" data-name="Group 676">
                <path id="Path_191" data-name="Path 191" d="M157.157,463.785l-3.3,14.522h22.307l.955-9.454Z" fill="#5279f7"/>
              </g>
            </g>
          </g>
          <g id="Group_682" data-name="Group 682">
            <g id="Group_681" data-name="Group 681">
              <g id="Group_680" data-name="Group 680">
                <g id="Group_679" data-name="Group 679">
                  <path id="Path_192" data-name="Path 192" d="M176.618,476.2a15.69,15.69,0,0,1-3.25.186c-2.008.022-4.781-.032-7.839-.144l-7.827-.333a18.21,18.21,0,0,1-3.241-.261,15.793,15.793,0,0,1,3.25-.176c2.008-.017,4.781.039,7.84.152l7.825.325A18.49,18.49,0,0,1,176.618,476.2Z" fill="#263238"/>
                </g>
              </g>
            </g>
          </g>
          <g id="Group_686" data-name="Group 686">
            <g id="Group_685" data-name="Group 685">
              <g id="Group_684" data-name="Group 684">
                <g id="Group_683" data-name="Group 683">
                  <path id="Path_193" data-name="Path 193" d="M167.168,466.616c.17.011.167,2.117-.007,4.7s-.454,4.672-.624,4.661-.168-2.117.007-4.7S167,466.6,167.168,466.616Z" fill="#263238"/>
                </g>
              </g>
            </g>
          </g>
          <g id="Group_689" data-name="Group 689" opacity="0.6">
            <g id="Group_688" data-name="Group 688">
              <g id="Group_687" data-name="Group 687">
                <path id="Path_194" data-name="Path 194" d="M153.856,478.307h22.307l.213-2.109-22.117-.551-.4,2.409" fill="#fff"/>
              </g>
            </g>
          </g>
        </g>
      </g>
      <g id="Group_744" data-name="Group 744">
        <g id="Group_695" data-name="Group 695">
          <g id="Group_694" data-name="Group 694">
            <g id="Group_693" data-name="Group 693">
              <g id="Group_692" data-name="Group 692">
                <path id="Path_195" data-name="Path 195" d="M234.221,436.745l4.7,35.457,17.158-1.193L252.477,438.5Z" fill="#aa6550"/>
              </g>
            </g>
          </g>
        </g>
        <g id="Group_743" data-name="Group 743">
          <g id="Group_730" data-name="Group 730">
            <g id="Group_700" data-name="Group 700">
              <g id="Group_699" data-name="Group 699">
                <g id="Group_698" data-name="Group 698">
                  <g id="Group_697" data-name="Group 697">
                    <g id="Group_696" data-name="Group 696">
                      <path id="Path_196" data-name="Path 196" d="M256.263,467.16h0s19.276,6.514,19.6,10.029l-36.863,1.075-.33-9.638,1.364.271A27.4,27.4,0,0,0,256.263,467.16Z" fill="#5279f7"/>
                    </g>
                  </g>
                </g>
              </g>
            </g>
            <g id="Group_706" data-name="Group 706" opacity="0.6">
              <g id="Group_705" data-name="Group 705">
                <g id="Group_704" data-name="Group 704">
                  <g id="Group_703" data-name="Group 703">
                    <g id="Group_702" data-name="Group 702">
                      <g id="Group_701" data-name="Group 701">
                        <path id="Path_197" data-name="Path 197" d="M242.979,470.307a1.506,1.506,0,0,0-.99,1.748,1.448,1.448,0,0,0,1.724,1,1.59,1.59,0,0,0,1.04-1.857,1.5,1.5,0,0,0-1.909-.839" fill="#fff"/>
                      </g>
                    </g>
                  </g>
                </g>
              </g>
            </g>
            <g id="Group_711" data-name="Group 711" opacity="0.6">
              <g id="Group_710" data-name="Group 710">
                <g id="Group_709" data-name="Group 709">
                  <g id="Group_708" data-name="Group 708">
                    <g id="Group_707" data-name="Group 707">
                      <path id="Path_198" data-name="Path 198" d="M238.995,478.264l.015-2.99,35.337.087s1.662.666,1.511,1.828Z" fill="#fff"/>
                    </g>
                  </g>
                </g>
              </g>
            </g>
            <g id="Group_717" data-name="Group 717">
              <g id="Group_716" data-name="Group 716">
                <g id="Group_715" data-name="Group 715">
                  <g id="Group_714" data-name="Group 714">
                    <g id="Group_713" data-name="Group 713">
                      <g id="Group_712" data-name="Group 712">
                        <path id="Path_199" data-name="Path 199" d="M256.855,466.955c0,.181-.9.288-1.768.893-.884.582-1.318,1.375-1.486,1.309-.166-.031.07-1.115,1.135-1.828S256.889,466.789,256.855,466.955Z" fill="#263238"/>
                      </g>
                    </g>
                  </g>
                </g>
              </g>
            </g>
            <g id="Group_723" data-name="Group 723">
              <g id="Group_722" data-name="Group 722">
                <g id="Group_721" data-name="Group 721">
                  <g id="Group_720" data-name="Group 720">
                    <g id="Group_719" data-name="Group 719">
                      <g id="Group_718" data-name="Group 718">
                        <path id="Path_200" data-name="Path 200" d="M260.768,468.442c.046.173-.725.5-1.314,1.281-.612.762-.742,1.589-.922,1.587-.168.033-.323-1.018.428-1.972S260.759,468.27,260.768,468.442Z" fill="#263238"/>
                      </g>
                    </g>
                  </g>
                </g>
              </g>
            </g>
            <g id="Group_729" data-name="Group 729">
              <g id="Group_728" data-name="Group 728">
                <g id="Group_727" data-name="Group 727">
                  <g id="Group_726" data-name="Group 726">
                    <g id="Group_725" data-name="Group 725">
                      <g id="Group_724" data-name="Group 724">
                        <path id="Path_201" data-name="Path 201" d="M263.1,473.005c-.163.043-.44-.849-.006-1.848s1.264-1.416,1.344-1.268c.106.144-.425.689-.768,1.515C263.306,472.222,263.277,472.982,263.1,473.005Z" fill="#263238"/>
                      </g>
                    </g>
                  </g>
                </g>
              </g>
            </g>
          </g>
          <g id="Group_736" data-name="Group 736">
            <g id="Group_735" data-name="Group 735">
              <g id="Group_734" data-name="Group 734">
                <g id="Group_733" data-name="Group 733">
                  <g id="Group_732" data-name="Group 732">
                    <g id="Group_731" data-name="Group 731">
                      <path id="Path_202" data-name="Path 202" d="M256.451,466.863a3.468,3.468,0,0,1-1.846.044,8.269,8.269,0,0,1-1.949-.537,8.708,8.708,0,0,1-1.077-.531,2.309,2.309,0,0,1-.57-.418.784.784,0,0,1-.11-.955.988.988,0,0,1,.776-.435,2.4,2.4,0,0,1,.7.076,6.516,6.516,0,0,1,2.894,1.427c.878.768,1.19,1.432,1.129,1.468-.08.062-.512-.489-1.4-1.118a7.341,7.341,0,0,0-1.673-.879,6.754,6.754,0,0,0-1.07-.3c-.393-.092-.725-.085-.82.092-.035.067-.039.094.046.205a1.879,1.879,0,0,0,.419.306,9.787,9.787,0,0,0,.992.529,10.251,10.251,0,0,0,1.8.632A12.513,12.513,0,0,1,256.451,466.863Z" fill="#263238"/>
                    </g>
                  </g>
                </g>
              </g>
            </g>
          </g>
          <g id="Group_742" data-name="Group 742">
            <g id="Group_741" data-name="Group 741">
              <g id="Group_740" data-name="Group 740">
                <g id="Group_739" data-name="Group 739">
                  <g id="Group_738" data-name="Group 738">
                    <g id="Group_737" data-name="Group 737">
                      <path id="Path_203" data-name="Path 203" d="M256.224,467.128a2.952,2.952,0,0,1-.539-1.769,5.972,5.972,0,0,1,.631-3.163,1.522,1.522,0,0,1,1.15-.966.86.86,0,0,1,.786.492,2.53,2.53,0,0,1,.21.671,4.118,4.118,0,0,1,.037,1.243,4.24,4.24,0,0,1-.733,1.931c-.692.976-1.437,1.213-1.454,1.152-.063-.088.555-.454,1.079-1.388a4.255,4.255,0,0,0,.533-1.752,3.761,3.761,0,0,0-.065-1.066c-.069-.39-.225-.7-.371-.657-.183,0-.486.306-.628.623a6.22,6.22,0,0,0-.428,1.014,6.7,6.7,0,0,0-.3,1.853C256.109,466.429,256.321,467.1,256.224,467.128Z" fill="#263238"/>
                    </g>
                  </g>
                </g>
              </g>
            </g>
          </g>
        </g>
      </g>
      <g id="Group_765" data-name="Group 765">
        <g id="Group_754" data-name="Group 754">
          <g id="Group_747" data-name="Group 747">
            <g id="Group_746" data-name="Group 746">
              <g id="Group_745" data-name="Group 745">
                <path id="Path_204" data-name="Path 204" d="M174.956,257.26s-13.6,22.73-13.6,36.327L158,459.193l21.5,5.124,16.4-161.836s39.722,162.256,41,162.256,20.834-3.507,20.834-3.507L228.068,257.989Z" fill="#202b4c"/>
              </g>
            </g>
          </g>
          <g id="Group_750" data-name="Group 750">
            <g id="Group_749" data-name="Group 749">
              <g id="Group_748" data-name="Group 748">
                <path id="Path_205" data-name="Path 205" d="M183.424,298.032a2.221,2.221,0,0,1-.041.418c-.044.3-.1.706-.178,1.217-.175,1.1-.423,2.668-.74,4.669-.665,4.051-1.588,9.919-2.681,17.176-2.185,14.476-4.912,34.582-7.2,56.888-2.275,22.286-3.68,42.521-4.475,57.177-.4,7.328-.686,13.261-.856,17.362-.094,2.023-.169,3.607-.221,4.722-.03.515-.054.921-.072,1.227a2.27,2.27,0,0,1-.045.418,2.175,2.175,0,0,1-.016-.42c0-.307.008-.713.014-1.229.026-1.116.063-2.7.11-4.726.1-4.105.32-10.042.668-17.375.688-14.667,2.028-34.918,4.3-57.216s5.08-42.39,7.378-56.892c1.146-7.252,2.132-13.111,2.867-17.151.365-1.993.65-3.553.851-4.651.1-.506.177-.906.235-1.207A2.207,2.207,0,0,1,183.424,298.032Z" fill="#455a64"/>
              </g>
            </g>
          </g>
          <g id="Group_753" data-name="Group 753">
            <g id="Group_752" data-name="Group 752">
              <g id="Group_751" data-name="Group 751">
                <path id="Path_206" data-name="Path 206" d="M217.454,300.772c.161-.028,6.72,36.316,14.647,81.168,7.931,44.867,14.227,81.25,14.066,81.279s-6.718-36.309-14.649-81.176C223.59,337.191,217.293,300.8,217.454,300.772Z" fill="#455a64"/>
              </g>
            </g>
          </g>
        </g>
        <g id="Group_756" data-name="Group 756">
          <g id="Group_755" data-name="Group 755">
            <path id="Path_207" data-name="Path 207" d="M195.136,302.2a1.626,1.626,0,0,1-.224-.412c-.13-.278-.321-.688-.549-1.225a43.374,43.374,0,0,1-1.6-4.672,47.468,47.468,0,0,1-1.536-16.166c.107-1.592.324-3.134.57-4.618.271-1.489.649-2.887,1.026-4.212.755-2.651,1.543-5,2.22-6.967s1.264-3.545,1.681-4.63l.5-1.244a1.585,1.585,0,0,1,.209-.421,1.623,1.623,0,0,1-.11.456l-.4,1.276c-.385,1.185-.9,2.764-1.523,4.679-.631,1.978-1.381,4.336-2.107,6.979-.362,1.321-.728,2.716-.985,4.172-.236,1.466-.448,2.995-.554,4.569a50.146,50.146,0,0,0,1.373,16.033c.5,2.01,1.059,3.594,1.429,4.694A12.413,12.413,0,0,1,195.136,302.2Z" fill="#455a64"/>
          </g>
        </g>
        <g id="Group_758" data-name="Group 758">
          <g id="Group_757" data-name="Group 757">
            <path id="Path_208" data-name="Path 208" d="M201.226,274.386a1.912,1.912,0,0,1,.032.318c.013.24.029.528.048.876.035.814.082,1.907.14,3.27.1,2.841.239,6.795.4,11.521l-.138-.2,8.275,3.372-.228.017,6.72-4.091.437-.265-.124.2c.507-5.467.983-10.6,1.394-15.036l.227.249-12.373-.116-3.526-.06-.947-.027a1.849,1.849,0,0,1-.342-.026,10.2,10.2,0,0,1,1.192-.052l3.474-.06,12.522-.116.25,0-.022.252c-.392,4.436-.847,9.573-1.33,15.042l-.012.13-.112.069-.437.265-6.728,4.078-.11.067-.118-.049-8.252-3.426-.136-.057,0-.144c-.074-4.788-.135-8.793-.179-11.671-.01-1.342-.017-2.42-.023-3.222A8.915,8.915,0,0,1,201.226,274.386Z" fill="#455a64"/>
          </g>
        </g>
        <g id="Group_760" data-name="Group 760">
          <g id="Group_759" data-name="Group 759">
            <path id="Path_209" data-name="Path 209" d="M170.106,270.014a10.925,10.925,0,0,1-.142,1.114c-.116.76-.272,1.772-.464,3.029-.427,2.633-1.017,6.284-1.723,10.648l-.087-.217,6.251,4.636-.218-.041,7.6-2.115.388-.107-.181.178c1.454-4.954,2.819-9.608,4-13.625l.169.286-11.227-2.678-3.2-.789c-.745-.189-1.151-.3-1.165-.319a8.986,8.986,0,0,1,1.093.2l3.172.662,11.426,2.482.237.052-.068.235c-1.16,4.023-2.505,8.683-3.937,13.643l-.04.14-.14.039-.388.107-7.6,2.1-.12.033-.1-.074-6.217-4.681-.111-.083.024-.134c.81-4.407,1.488-8.094,1.976-10.753.237-1.228.427-2.216.57-2.958A8.051,8.051,0,0,1,170.106,270.014Z" fill="#455a64"/>
          </g>
        </g>
        <g id="Group_762" data-name="Group 762">
          <g id="Group_761" data-name="Group 761">
            <path id="Path_210" data-name="Path 210" d="M213.532,298.986a85.292,85.292,0,0,1-9.146,2.253,85.5,85.5,0,0,1-9.259,1.744,85.349,85.349,0,0,1,9.148-2.253A85.758,85.758,0,0,1,213.532,298.986Z" fill="#455a64"/>
          </g>
        </g>
        <g id="Group_764" data-name="Group 764">
          <g id="Group_763" data-name="Group 763">
            <path id="Path_211" data-name="Path 211" d="M186.8,299.7a8.287,8.287,0,0,1-2.347,0,38.762,38.762,0,0,1-5.591-.877,37.833,37.833,0,0,1-5.414-1.653,8.427,8.427,0,0,1-2.11-1.026,13.867,13.867,0,0,1,2.235.68c1.366.442,3.269,1.005,5.406,1.491s4.091.821,5.514,1.019A14.287,14.287,0,0,1,186.8,299.7Z" fill="#455a64"/>
          </g>
        </g>
      </g>
      <g id="Group_799" data-name="Group 799">
        <g id="Group_767" data-name="Group 767">
          <g id="Group_766" data-name="Group 766">
            <path id="Path_212" data-name="Path 212" d="M184.416,127.186c.742,2.141-1.795,3.965-4,4.471s-4.885.824-5.9,2.852c-.877,1.758.012,3.992-.786,5.787-1.52,3.417-7.657,2.7-8.86,6.244-.826,2.429,1.456,4.935,1.17,7.485-.246,2.2-2.258,3.692-4.023,5.022s-3.621,3.165-3.343,5.358c.322,2.533,3.413,4.286,3.13,6.824-.279,2.5-3.647,3.662-4.132,6.127-.575,2.925,3.088,4.806,4.265,7.545.9,2.093.344,4.788,1.863,6.485,1.557,1.739,4.319,1.4,6.6.914l22.764-4.826c-1.539-3.6-.091-7.809,2.1-11.05s5.116-5.977,7-9.406,2.5-8.019.036-11.056" fill="#263238"/>
          </g>
        </g>
        <g id="Group_770" data-name="Group 770">
          <g id="Group_769" data-name="Group 769">
            <g id="Group_768" data-name="Group 768">
              <path id="Path_213" data-name="Path 213" d="M224.449,145.389a23.4,23.4,0,0,0-.745-3.6,3.618,3.618,0,0,0-.911-1.477c-.449-.427-1.034-.157-1.4.458a11.114,11.114,0,0,0,0,9.228c.371.614.956.884,1.4.457a3.618,3.618,0,0,0,.911-1.477,23.427,23.427,0,0,0,.745-3.594,2.741,2.741,0,0,1,.078,1,9.622,9.622,0,0,1-.428,2.727,3.9,3.9,0,0,1-.992,1.717,1.223,1.223,0,0,1-1.21.283,1.992,1.992,0,0,1-.962-.815,11.159,11.159,0,0,1,0-9.835,2,2,0,0,1,.962-.815,1.224,1.224,0,0,1,1.21.283,3.9,3.9,0,0,1,.992,1.717,9.617,9.617,0,0,1,.428,2.727A2.754,2.754,0,0,1,224.449,145.389Z" fill="#263238"/>
            </g>
          </g>
        </g>
        <g id="Group_787" data-name="Group 787">
          <g id="Group_772" data-name="Group 772">
            <g id="Group_771" data-name="Group 771">
              <path id="Path_214" data-name="Path 214" d="M187.311,166.353c-4.118-6.959-5.3-16.228-6.339-24.247-.49-3.774-1.352-9.147,1.3-11.508,2.843-2.529,3.116-6.428,6.383-8.379s7.7-2.113,10.778.12" fill="#263238"/>
            </g>
          </g>
          <g id="Group_786" data-name="Group 786">
            <g id="Group_782" data-name="Group 782">
              <g id="Group_779" data-name="Group 779">
                <g id="Group_778" data-name="Group 778">
                  <g id="Group_777" data-name="Group 777">
                    <g id="Group_776" data-name="Group 776">
                      <g id="Group_775" data-name="Group 775">
                        <g id="Group_774" data-name="Group 774">
                          <g id="Group_773" data-name="Group 773">
                            <path id="Path_215" data-name="Path 215" d="M198.721,191h0a11.166,11.166,0,0,0,12.043-10.672c.252-6.077.473-12.221.473-12.221s9.213-.836,9.908-9.95S221.6,128,221.6,128h0a31.763,31.763,0,0,0-32.107,1.97l.475,32.083-.051,17.26C189.957,185.1,192.95,190.542,198.721,191Z" fill="#aa6550"/>
                          </g>
                        </g>
                      </g>
                    </g>
                  </g>
                </g>
              </g>
              <g id="Group_781" data-name="Group 781">
                <g id="Group_780" data-name="Group 780">
                  <path id="Path_216" data-name="Path 216" d="M212.092,147c-1.566-1.953-4.121-2.736-6.224-1.378a5.3,5.3,0,0,0-1.785,6.62,6.981,6.981,0,0,0,4.462,3.394,3.5,3.5,0,0,1,2.73,3.777c-.269,2.287-4.078,3.136-5.8,5.024-2.68,2.938-8.548,4.168-12.5,4.623-3.884.448-3.415.487-5.664-2.711a12.243,12.243,0,0,1-2.2-7.407q-.179-10.081-.358-20.164a28.873,28.873,0,0,1,.48-7.233,9.714,9.714,0,0,1,3.833-5.972c2.222-1.452,5.031-1.569,7.559-2.378,3.16-1.012,5.847-3.1,8.805-4.6s6.582-2.395,9.543-.9c2.126,1.074,3.547,3.2,5.613,4.386,2.942,1.685,6.955,1.316,8.374,5.654a7.343,7.343,0,0,1-.063,4.635c-2.015,5.891-9.326,8.247-14.579,5.683-.107,1,.87,3.224-.191,6.377-.339,1.007-.463,2.544-2.039,2.568" fill="#263238"/>
                </g>
              </g>
            </g>
            <g id="Group_785" data-name="Group 785">
              <g id="Group_784" data-name="Group 784">
                <g id="Group_783" data-name="Group 783">
                  <path id="Path_217" data-name="Path 217" d="M210.445,152.69c.037.014.036.172-.127.393a1.361,1.361,0,0,1-1.018.505,2.509,2.509,0,0,1-2.355-2.523,2.635,2.635,0,0,1,.675-1.926,2.728,2.728,0,0,1,1.43-.818c.939-.194,1.479.154,1.44.213-.023.1-.561-.044-1.314.23a2.287,2.287,0,0,0-1.58,2.272,2.125,2.125,0,0,0,1.709,2.092C210.068,153.175,210.378,152.632,210.445,152.69Z" fill="#995037"/>
                </g>
              </g>
            </g>
          </g>
        </g>
        <g id="Group_790" data-name="Group 790">
          <g id="Group_789" data-name="Group 789">
            <g id="Group_788" data-name="Group 788">
              <path id="Path_218" data-name="Path 218" d="M224.472,144.951a33.285,33.285,0,0,1-6.133,1.3,33.272,33.272,0,0,1-6.229.719,33.408,33.408,0,0,1,6.133-1.3A33.427,33.427,0,0,1,224.472,144.951Z" fill="#263238"/>
            </g>
          </g>
        </g>
        <g id="Group_792" data-name="Group 792">
          <g id="Group_791" data-name="Group 791">
            <path id="Path_219" data-name="Path 219" d="M188.043,175.247a2.65,2.65,0,0,0,3.168,1.271,7.58,7.58,0,0,0,3.062-2.077,8.021,8.021,0,0,1,3.036-2.122c2.432-.739,5.408.884,7.453-.625,1.862-1.374,1.619-4.483,3.447-5.9.97-.753,2.324-.85,3.312-1.58,1.847-1.365,1.542-4.415-.01-6.109s-3.889-2.38-6.1-2.993L185.82,163.46Z" fill="#263238"/>
          </g>
        </g>
        <g id="Group_795" data-name="Group 795">
          <g id="Group_794" data-name="Group 794">
            <g id="Group_793" data-name="Group 793">
              <path id="Path_220" data-name="Path 220" d="M211.314,139.849c.005.009-.05.049-.163.12a5.022,5.022,0,0,1-.518.289,10.415,10.415,0,0,1-2.145.775,24.777,24.777,0,0,1-3.558.565,35.922,35.922,0,0,0-4.675.646,8.8,8.8,0,0,0-4.837,2.642c-1.323,1.533-1.816,3.739-2.838,5.87a7.6,7.6,0,0,1-2.28,2.871,11.924,11.924,0,0,1-3.411,1.681c-2.407.806-5.056,1.291-7.061,2.991a5.061,5.061,0,0,0-1.808,3.2,22.172,22.172,0,0,0,0,3.8,6.229,6.229,0,0,1-3.372,6.305c-2.049,1.206-4.2,1.845-5.91,2.938a6.923,6.923,0,0,0-2.108,1.945,5.121,5.121,0,0,0-.8,2.495,17.5,17.5,0,0,0,.637,4.633,12.1,12.1,0,0,1,.327,3.6,5.1,5.1,0,0,1-.653,2.19,2.564,2.564,0,0,1-.495.625,5.432,5.432,0,0,0,.918-2.831,12.387,12.387,0,0,0-.42-3.509,17.293,17.293,0,0,1-.732-4.732,5.539,5.539,0,0,1,.833-2.717,7.36,7.36,0,0,1,2.23-2.113c1.78-1.154,3.934-1.815,5.89-2.99a5.693,5.693,0,0,0,3.075-5.823,22.265,22.265,0,0,1,0-3.908,5.654,5.654,0,0,1,2.006-3.566c2.172-1.83,4.916-2.3,7.261-3.091a11.423,11.423,0,0,0,3.255-1.583,7.065,7.065,0,0,0,2.132-2.661c1-2.034,1.517-4.3,2.953-5.947a9.2,9.2,0,0,1,5.118-2.732,34.457,34.457,0,0,1,4.738-.567,26.918,26.918,0,0,0,3.536-.46A15.949,15.949,0,0,0,211.314,139.849Z" fill="#455a64"/>
            </g>
          </g>
        </g>
        <g id="Group_798" data-name="Group 798">
          <g id="Group_797" data-name="Group 797">
            <g id="Group_796" data-name="Group 796">
              <path id="Path_221" data-name="Path 221" d="M206.036,143.116c0,.064-.7,0-1.907.274a8.662,8.662,0,0,0-4.393,2.625,7.925,7.925,0,0,0-1.749,3.061,13.758,13.758,0,0,0-.358,4.091,10.692,10.692,0,0,1-.677,4.678,4.767,4.767,0,0,1-1.71,1.924,20.7,20.7,0,0,1-2.259,1.208,5.881,5.881,0,0,0-1.948,1.384,3.5,3.5,0,0,0-.765,2.1c-.107,1.52.225,3.215-.524,4.67a7.694,7.694,0,0,1-3.047,3.021c-1.15.684-2.265,1.188-3.211,1.759a7.932,7.932,0,0,0-2.259,1.871,5.133,5.133,0,0,0-.973,1.972,4.573,4.573,0,0,0,.034,1.889,1.147,1.147,0,0,1-.2-.468,3.424,3.424,0,0,1-.06-1.466,5.179,5.179,0,0,1,.935-2.127,8.05,8.05,0,0,1,2.3-2.028c.957-.608,2.072-1.14,3.172-1.82a7.285,7.285,0,0,0,2.813-2.839c.65-1.262.345-2.821.437-4.477a4.072,4.072,0,0,1,.891-2.431,6.4,6.4,0,0,1,2.133-1.537c1.539-.744,3.082-1.433,3.716-2.859a10.358,10.358,0,0,0,.653-4.422,13.912,13.912,0,0,1,.433-4.235,8.26,8.26,0,0,1,1.912-3.2,8.572,8.572,0,0,1,4.653-2.566,6.077,6.077,0,0,1,1.451-.109A1.6,1.6,0,0,1,206.036,143.116Z" fill="#455a64"/>
            </g>
          </g>
        </g>
      </g>
      <g id="Group_800" data-name="Group 800">
        <path id="Path_222" data-name="Path 222" d="M213.473,176.624l-2.37-4.878-20.593-.777-3.232,6.334h25.86" fill="#2759fc"/>
      </g>
      <g id="Group_868" data-name="Group 868">
        <g id="Group_827" data-name="Group 827">
          <g id="Group_805" data-name="Group 805">
            <g id="Group_801" data-name="Group 801">
              <path id="Path_223" data-name="Path 223" d="M284.246,220.665c-.148-.74,5.448-29.815,6.99-37.8a1.69,1.69,0,0,0-1.66-2.01H248.347a1.689,1.689,0,0,0-1.645,1.3l-8.443,35.592L217.451,219.3l.731,1.365Z" fill="#455a64"/>
            </g>
            <g id="Group_802" data-name="Group 802">
              <path id="Path_224" data-name="Path 224" d="M282.441,218.085l6.671-35.25-40.529.245-8.9,35.055Z" fill="#ebebeb"/>
              <path id="Path_225" data-name="Path 225" d="M239.649,218.16l.007-.031,8.907-35.073h.019l40.56-.246-.006.031-6.674,35.269h-.021ZM248.6,183.1l-8.889,35.006,42.707-.051,6.662-35.2Z" fill="#263238"/>
            </g>
            <g id="Group_804" data-name="Group 804">
              <g id="Group_803" data-name="Group 803">
                <path id="Path_226" data-name="Path 226" d="M282.4,218.33c0,.144-11.86.26-26.486.26s-26.488-.116-26.488-.26,11.857-.26,26.488-.26S282.4,218.186,282.4,218.33Z" fill="#263238"/>
              </g>
            </g>
          </g>
          <g id="Group_826" data-name="Group 826">
            <g id="Group_821" data-name="Group 821">
              <g id="Group_812" data-name="Group 812">
                <g id="Group_807" data-name="Group 807">
                  <g id="Group_806" data-name="Group 806">
                    <path id="Path_227" data-name="Path 227" d="M279.605,209.43a2.034,2.034,0,0,1-.53.053l-1.518.049-5.586.082c-4.717.048-11.232.077-18.429.077l-5.914-.007H247.3l.081-.316c1.435-5.55,2.688-10.4,3.606-13.952.455-1.679.825-3.048,1.1-4.071a9.853,9.853,0,0,1,.457-1.456,9.923,9.923,0,0,1-.287,1.5c-.24,1.033-.562,2.414-.957,4.108-.873,3.562-2.065,8.428-3.43,14l-.246-.315,5.914-.007c7.2,0,13.712.029,18.429.076l5.586.083,1.518.049A2.072,2.072,0,0,1,279.605,209.43Z" fill="#5279f7"/>
                  </g>
                </g>
                <g id="Group_808" data-name="Group 808">
                  <path id="Path_228" data-name="Path 228" d="M250.247,208.092l.758-3.4h5.216l-.667,3.4Z" fill="#5279f7"/>
                </g>
                <g id="Group_809" data-name="Group 809">
                  <path id="Path_229" data-name="Path 229" d="M257.34,208.092l1.575-6.691h5.216l-1.484,6.691Z" fill="#5279f7"/>
                </g>
                <g id="Group_810" data-name="Group 810">
                  <path id="Path_230" data-name="Path 230" d="M264.432,208.092l.758-3.4h5.216l-.667,3.4Z" fill="#5279f7"/>
                </g>
                <g id="Group_811" data-name="Group 811">
                  <path id="Path_231" data-name="Path 231" d="M271.525,208.092l2.987-13h5.216l-2.9,13Z" fill="#5279f7"/>
                </g>
              </g>
              <g id="Group_814" data-name="Group 814">
                <g id="Group_813" data-name="Group 813">
                  <path id="Path_232" data-name="Path 232" d="M254.338,211.892a8.652,8.652,0,0,1-4.21-.04,8.619,8.619,0,0,1,4.21.04Z" fill="#5279f7"/>
                </g>
              </g>
              <g id="Group_816" data-name="Group 816">
                <g id="Group_815" data-name="Group 815">
                  <path id="Path_233" data-name="Path 233" d="M261.214,211.881a8.656,8.656,0,0,1-4.211-.04,8.656,8.656,0,0,1,4.211.04Z" fill="#5279f7"/>
                </g>
              </g>
              <g id="Group_818" data-name="Group 818">
                <g id="Group_817" data-name="Group 817">
                  <path id="Path_234" data-name="Path 234" d="M268.09,211.87a8.656,8.656,0,0,1-4.211-.04,8.656,8.656,0,0,1,4.211.04Z" fill="#5279f7"/>
                </g>
              </g>
              <g id="Group_820" data-name="Group 820">
                <g id="Group_819" data-name="Group 819">
                  <path id="Path_235" data-name="Path 235" d="M274.965,211.859a8.652,8.652,0,0,1-4.21-.04,8.651,8.651,0,0,1,4.21.04Z" fill="#5279f7"/>
                </g>
              </g>
            </g>
            <g id="Group_823" data-name="Group 823">
              <g id="Group_822" data-name="Group 822">
                <path id="Path_236" data-name="Path 236" d="M264.855,188.359a32.884,32.884,0,0,1-5.837.261,32.875,32.875,0,0,1-5.837-.261,32.939,32.939,0,0,1,5.837-.26A32.948,32.948,0,0,1,264.855,188.359Z" fill="#5279f7"/>
              </g>
            </g>
            <g id="Group_825" data-name="Group 825">
              <g id="Group_824" data-name="Group 824">
                <path id="Path_237" data-name="Path 237" d="M258.717,186.915a12.956,12.956,0,0,1-5.175,0,13.006,13.006,0,0,1,5.175,0Z" fill="#5279f7"/>
              </g>
            </g>
          </g>
        </g>
        <g id="Group_828" data-name="Group 828">
          <path id="Path_238" data-name="Path 238" d="M247.536,242.1l23.86-17.271-.887-1.444a11.521,11.521,0,0,0-5.577-4.679l-3.731.67-22.121,3.37Z" fill="#5279f7"/>
        </g>
        <g id="Group_829" data-name="Group 829">
          <path id="Path_239" data-name="Path 239" d="M162.714,238.132l19.822-7.877-4.425-16.419-16.156,5.492Z" fill="#436df5"/>
        </g>
        <g id="Group_841" data-name="Group 841">
          <g id="Group_837" data-name="Group 837">
            <g id="Group_830" data-name="Group 830">
              <path id="Path_240" data-name="Path 240" d="M246.711,242.564c4.94-2.454,6.209-8.347,3.8-13.307l-20.54-43.9a7.924,7.924,0,0,0-2.066-2.833,23.226,23.226,0,0,0-16.99-5.818l-21.422-.562s-16.826,0-23.14,13.263c-.462.97-10.243,20.37-16.691,33.153a11.057,11.057,0,0,0,6.064,15.361h0a11.06,11.06,0,0,0,13.9-5.855l7.006-15.619,4.411,22.373-6.35,18.437,53.112.729-4.084-24.664-1.289-17.586L233.2,237.951a10.045,10.045,0,0,0,13.509,4.613Z" fill="#5279f7"/>
            </g>
            <g id="Group_833" data-name="Group 833" opacity="0.2">
              <g id="Group_832" data-name="Group 832">
                <g id="Group_831" data-name="Group 831">
                  <path id="Path_241" data-name="Path 241" d="M182.834,238.394c4.021,3.01,9.943,2.007,14.9,1.183a21.511,21.511,0,0,0,12.975-7.028,8.722,8.722,0,0,0,2.409-6.133c-.2-2.247-2.183-4.415-4.422-4.146-2.566.309-3.8,3.186-5.039,5.456a19.9,19.9,0,0,1-20.736,9.738S182.118,237.859,182.834,238.394Z"/>
                </g>
              </g>
            </g>
            <g id="Group_836" data-name="Group 836" opacity="0.2">
              <g id="Group_835" data-name="Group 835">
                <g id="Group_834" data-name="Group 834">
                  <path id="Path_242" data-name="Path 242" d="M215.629,203.83c1.252,10.1.692,9.335,2.8,19.3,1.037,4.9,2.3,10.012,5.675,13.707l-1.673-21.094Z"/>
                </g>
              </g>
            </g>
          </g>
          <g id="Group_840" data-name="Group 840">
            <g id="Group_839" data-name="Group 839">
              <g id="Group_838" data-name="Group 838">
                <path id="Path_243" data-name="Path 243" d="M165.755,148.975" fill="none" stroke="#839198" stroke-miterlimit="10" stroke-width="1"/>
              </g>
            </g>
          </g>
        </g>
        <g id="Group_842" data-name="Group 842">
          <path id="Path_244" data-name="Path 244" d="M174.691,257.26l-1.522-4.434,3.957-2.636,48.72-4.018,3.436,6.454-1.479,5.362Z" fill="#5279f7"/>
        </g>
        <g id="Group_844" data-name="Group 844">
          <g id="Group_843" data-name="Group 843">
            <path id="Path_245" data-name="Path 245" d="M184.751,173.668a7.267,7.267,0,0,0-3.385,10.847,3.537,3.537,0,0,1,.929,2.012c-.094,1.8-3,1.848-3.918,3.4a2.791,2.791,0,0,0,.779,3.255,22.154,22.154,0,0,0,3,2,3.657,3.657,0,0,1,1.84,2.929c1.017-.028,1.617-1.259,1.462-2.264a9.876,9.876,0,0,0-1.249-2.765,2.9,2.9,0,0,1-.126-2.9c.665-.946,2.019-.985,3.1-1.4a4.319,4.319,0,0,0,2.288-5.561c-.653-1.462-2.175-2.94-1.434-4.36.413-.791,1.362-1.095,2.143-1.527a5.577,5.577,0,0,0,.724-9.286" fill="#263238"/>
          </g>
        </g>
        <g id="Group_846" data-name="Group 846">
          <g id="Group_845" data-name="Group 845">
            <path id="Path_246" data-name="Path 246" d="M176.5,218.591a13.058,13.058,0,0,1-1.08,2.494c-.739,1.5-1.82,3.557-3.124,5.761s-2.586,4.139-3.551,5.51a13.1,13.1,0,0,1-1.668,2.147,15.172,15.172,0,0,1,1.361-2.35c.884-1.42,2.11-3.378,3.41-5.572s2.426-4.209,3.246-5.668A15.179,15.179,0,0,1,176.5,218.591Z" fill="#263238"/>
          </g>
        </g>
        <g id="Group_848" data-name="Group 848">
          <g id="Group_847" data-name="Group 847">
            <path id="Path_247" data-name="Path 247" d="M171.825,227.017a8.511,8.511,0,0,1-2.2,6.862c-.128-.089.77-1.455,1.365-3.346C171.606,228.649,171.669,227.015,171.825,227.017Z" fill="#263238"/>
          </g>
        </g>
        <g id="Group_850" data-name="Group 850">
          <g id="Group_849" data-name="Group 849">
            <path id="Path_248" data-name="Path 248" d="M249.639,227.678c-.13.061-4.285-8.634-9.278-19.417s-8.938-19.579-8.807-19.639,4.284,8.633,9.279,19.42S249.77,227.618,249.639,227.678Z" fill="#263238"/>
          </g>
        </g>
        <g id="Group_852" data-name="Group 852">
          <g id="Group_851" data-name="Group 851">
            <path id="Path_249" data-name="Path 249" d="M224.337,182.836c.031.082-.9.41-2.219,1.234a13.807,13.807,0,0,0-6.439,9.809c-.23,1.542-.162,2.522-.25,2.527a6.569,6.569,0,0,1-.115-2.571,12.877,12.877,0,0,1,6.618-10.082A6.531,6.531,0,0,1,224.337,182.836Z" fill="#263238"/>
          </g>
        </g>
        <g id="Group_854" data-name="Group 854">
          <g id="Group_853" data-name="Group 853">
            <path id="Path_250" data-name="Path 250" d="M180.978,239.041c-.141.032-2.53-10.145-5.336-22.728s-4.967-22.812-4.827-22.843,2.529,10.143,5.336,22.73S181.118,239.01,180.978,239.041Z" fill="#263238"/>
          </g>
        </g>
        <g id="Group_855" data-name="Group 855">
          <path id="Path_251" data-name="Path 251" d="M271.4,224.831l9.684-4.166h-12.9L271,224.317" fill="#aa6550"/>
        </g>
        <g id="Group_857" data-name="Group 857">
          <g id="Group_856" data-name="Group 856">
            <path id="Path_252" data-name="Path 252" d="M251.5,225.908a16.808,16.808,0,0,1-2.349-2.208,16.98,16.98,0,0,1-2.276-2.283,11.331,11.331,0,0,1,4.625,4.491Z" fill="#263238"/>
          </g>
        </g>
        <g id="Group_859" data-name="Group 859">
          <g id="Group_858" data-name="Group 858">
            <path id="Path_253" data-name="Path 253" d="M233.645,238.767a9.175,9.175,0,0,1-.815-1.346c-.5-.882-1.189-2.172-2.029-3.774-1.682-3.2-3.917-7.675-6.364-12.62s-4.69-9.407-6.353-12.617c-.8-1.542-1.462-2.821-1.969-3.8a9.076,9.076,0,0,1-.674-1.423,9.172,9.172,0,0,1,.851,1.324c.521.868,1.244,2.142,2.117,3.727,1.748,3.169,4.046,7.611,6.5,12.559l6.225,12.684,1.881,3.847A9.157,9.157,0,0,1,233.645,238.767Z" fill="#263238"/>
          </g>
        </g>
        <g id="Group_861" data-name="Group 861">
          <g id="Group_860" data-name="Group 860">
            <path id="Path_254" data-name="Path 254" d="M214.5,225.184c.017,0,.012.122-.015.349a7.706,7.706,0,0,1-.167.985,12.856,12.856,0,0,1-1.323,3.43,19.431,19.431,0,0,1-8.966,7.958,39.093,39.093,0,0,1-11.709,2.923c-1.534.173-2.779.273-3.639.33a6.658,6.658,0,0,1-1.342.035,6.6,6.6,0,0,1,1.321-.236l3.613-.495a42.591,42.591,0,0,0,11.539-3.03,19.88,19.88,0,0,0,8.863-7.667A19.259,19.259,0,0,0,214.5,225.184Z" fill="#263238"/>
          </g>
        </g>
        <g id="Group_863" data-name="Group 863">
          <g id="Group_862" data-name="Group 862">
            <path id="Path_255" data-name="Path 255" d="M203.817,250.947c.01.144-6.579.722-14.714,1.293s-14.742.917-14.752.773,6.577-.722,14.715-1.293S203.807,250.8,203.817,250.947Z" fill="#263238"/>
          </g>
        </g>
        <g id="Group_865" data-name="Group 865">
          <g id="Group_864" data-name="Group 864">
            <path id="Path_256" data-name="Path 256" d="M212.312,247a24.083,24.083,0,0,1,1.062,10.086c-.151,0-.215-2.27-.512-5.045S212.165,247.031,212.312,247Z" fill="#263238"/>
          </g>
        </g>
        <g id="Group_867" data-name="Group 867">
          <g id="Group_866" data-name="Group 866">
            <path id="Path_257" data-name="Path 257" d="M215.728,243.818a6.579,6.579,0,0,1,.442,2.012,25.5,25.5,0,0,1-.691,9.872,6.555,6.555,0,0,1-.718,1.931c-.157-.045.774-3.043,1.028-6.87C216.071,246.94,215.566,243.841,215.728,243.818Z" fill="#263238"/>
          </g>
        </g>
      </g>
      <g id="Group_870" data-name="Group 870">
        <g id="Group_869" data-name="Group 869">
          <path id="Path_258" data-name="Path 258" d="M213.526,176.972c-.008.144-4.766-.006-10.625-.336s-10.6-.713-10.6-.856,4.765.007,10.626.336S213.534,176.829,213.526,176.972Z" fill="#263238"/>
        </g>
      </g>
    </g>
  </g>
</svg>
