<svg xmlns="http://www.w3.org/2000/svg" width="326.458" height="565.443" viewBox="0 0 326.458 565.443"><g id="Group_285" data-name="Group 285" transform="translate(-1172.837 -1249.464)"><g id="Group_126" data-name="Group 126"><path id="Path_381" data-name="Path 381" d="M1388.283,1450.515c.363-.073.715-.168,1.073-.212a7.077,7.077,0,0,1,3.075.439,3.379,3.379,0,0,0,3.262-.9,1.217,1.217,0,0,0,.412-.946c-.04-.227-.493-.424-.8-.551a8.006,8.006,0,0,1-1.75-.649c-1.631-1.225-3.607-.741-5.379-1.22-1.867-.505-3.736-.118-5.6-.006-1.1.066-2.19.245-3.278.413a6.172,6.172,0,0,1-2.978-.227c-1.978-.664-4.014-1.175-5.95-1.942-2.2-.872-4.324-1.955-6.639-3.019l-8.813,10.144c.761.209,1.438.408,2.122.582,3.442.873,6.9,1.676,10.323,2.629a14.11,14.11,0,0,1,5.8,3.387c1.154,1.076,2.184,2.3,3.406,3.283a31.629,31.629,0,0,0,3.591,2.295c1.2.725,2.412,1.425,3.634,2.11s2.427,1.409,3.7,1.977a3.227,3.227,0,0,0,3.585-.539c.378-.367,1.161-.343,1.769-.436a10.161,10.161,0,0,1,1.376-.053,1.2,1.2,0,0,0,1.192-.741,1,1,0,0,1,1.232-.668,4.909,4.909,0,0,0,3.707-1.086,1.665,1.665,0,0,1,.738-.176c.872-.1,1.2-.707.756-1.47a3.553,3.553,0,0,0-2.621-1.624,1.65,1.65,0,0,1-.566-.111c-1.159-.756-2.34-1.486-3.434-2.329a8.858,8.858,0,0,1-1.161-1.488c-.885-1.073-1.789-2.13-2.686-3.192Z" fill="#fcb3b3"></path><g id="Group_96" data-name="Group 96"><g id="Group_95" data-name="Group 95"><g id="Group_94" data-name="Group 94"><g id="Group_93" data-name="Group 93"><path id="Path_382" data-name="Path 382" d="M1325.677,1308.449c-1.152,12.828-7.914,24.472-15.614,34.8-1.92,2.574-3.978,5.16-6.753,6.779s-6.446,2.083-9.149.348c-1.953-1.253-3.1-3.409-4.169-5.47l-17.516-33.866c-2.721-5.261-5.5-10.718-5.869-16.63-.377-6.025,1.788-11.9,4.115-17.466,1.663-3.982,3.551-8.086,6.945-10.75,3.3-2.586,7.586-3.478,11.736-4.046a47.945,47.945,0,0,1,14.268-.2,24.915,24.915,0,0,1,9.384,3.47c3.065,1.965,3.684,4.209,5.02,7.5,2.94,7.244,5.665,14.658,6.98,22.393A51.2,51.2,0,0,1,1325.677,1308.449Z" fill="#202b4c"></path></g></g></g></g><path id="Path_383" data-name="Path 383" d="M1258.8,1383.071c4.46-12.083,1.374-26.455-.217-39.8-1.937-16.323-1.331-34.524.483-50.847l56.381,1.793c1.971,6.985,4.225,13.879,6.335,20.718,5.653,18.314,10.426,38.784,5.979,57.7a57.286,57.286,0,0,1-18.985,30.952c-8.631,7.146-18.576,10.923-28.556,13.1-5.9,1.291-12.138,2.011-17.671-1.03-5.545-3.058-10.041-10.972-8.9-18.919C1254.387,1391.688,1257.111,1387.683,1258.8,1383.071Z" fill="#202b4c"></path><g id="Group_117" data-name="Group 117"><g id="Group_116" data-name="Group 116"><g id="Group_115" data-name="Group 115"><g id="Group_114" data-name="Group 114"><g id="Group_113" data-name="Group 113"><g id="Group_106" data-name="Group 106"><g id="Group_105" data-name="Group 105"><path id="Path_384" data-name="Path 384" d="M1213.6,1760.318l-12.748-.173c-3.379,18.632-9.054,41.358-20.289,41.576-4.447,3.628,33.27,20.468,37.234,5.426C1221.143,1794.446,1207.776,1796.266,1213.6,1760.318Z" fill="#fcb3b3"></path><path id="Path_385" data-name="Path 385" d="M1174.891,1814.849h41.861a2.049,2.049,0,0,0,2.049-2.049v-9.812a.606.606,0,0,0-1.019-.427c-12.084,10.209-19.592-7.212-30.7-5.417-8.387,1.362-12.531,10.36-14.127,14.979A2.048,2.048,0,0,0,1174.891,1814.849Z" fill="#5279f7"></path><g id="Group_104" data-name="Group 104"><g id="Group_103" data-name="Group 103"><path id="Path_386" data-name="Path 386" d="M1295.528,1758.263h16.378c1.663,18.863,6.451,40.841,17.619,42.085,4.1,4.019-36.172,18.89-38.745,3.548C1288.608,1790.943,1298.044,1794.592,1295.528,1758.263Z" fill="#fcb3b3"></path><path id="Path_387" data-name="Path 387" d="M1289.74,1801.744v10.935a2.229,2.229,0,0,0,2.228,2.228H1347.8a2.218,2.218,0,0,0,2.137-2.883c-1.564-4.749-6.552-13.54-21.9-11.925,0,0-4.388,7.861-18.83,4.936S1290.2,1799.368,1289.74,1801.744Z" fill="#5279f7"></path><g id="Group_97" data-name="Group 97"><path id="Path_388" data-name="Path 388" d="M1195.021,1765l19.1,4.651s34.142-110.187,35.681-129.3c1.156-14.128,20.64-70.448,30.807-99.025,3.592-10.167,6.03-16.838,6.03-16.838s9.734,102.425,2.485,133.968S1292.731,1765,1292.731,1765h23.285s-12.909-68.284,13.968-172.232c21.136-81.722,2.309-129.879-6.719-146.749-.465-.851-.9-1.62-1.3-2.326a44.5,44.5,0,0,0-2.887-4.538h-59.431s-.882,1.556-2.5,4.667c-.4.769-.834,1.651-1.331,2.613-3.752,7.425-10.07,20.527-17.88,39.306-9.783,23.445-14.225,102.1-15.812,139.148a120.3,120.3,0,0,1-6.623,33.4C1202.526,1695.718,1195.021,1765,1195.021,1765Z" fill="#202b4c"></path></g><g id="Group_99" data-name="Group 99"><g id="Group_98" data-name="Group 98"><path id="Path_389" data-name="Path 389" d="M1319.056,1446.827c-.468-.854-.9-1.627-1.306-2.336-.393-.689-.751-1.288-1.078-1.821h-1.521c.422.664.914,1.464,1.481,2.457.4.7.83,1.471,1.291,2.313,9.02,16.854,27.727,64.847,6.664,146.283-24.688,95.486-15.71,161.68-14.184,171.274h1.3c-1.42-8.8-10.673-75.03,14.129-170.952C1347.011,1512.17,1328.15,1463.82,1319.056,1446.827Z" fill="#202b4c"></path></g></g><path id="Path_390" data-name="Path 390" d="M1257.146,1443.818l.369.1a133.061,133.061,0,0,0,34.88,5.035c16.678,0,26.6-3.9,29.571-5.26a44.5,44.5,0,0,0-2.887-4.538h-59.431S1258.766,1440.707,1257.146,1443.818Z" fill="#202b4c"></path><rect id="Rectangle_31" data-name="Rectangle 31" width="2.093" height="12.18" transform="translate(1307.555 1452.165) rotate(172.785)" fill="#202b4c"></rect><rect id="Rectangle_32" data-name="Rectangle 32" width="2.093" height="12.18" transform="matrix(-0.971, -0.239, 0.239, -0.971, 1279.883, 1452.418)" fill="#202b4c"></rect><g id="Group_100" data-name="Group 100"><path id="Path_391" data-name="Path 391" d="M1287.879,1444.108l.026,3.872a2.193,2.193,0,0,0,2.194,2.145l3.648-.039.206,15.141.74-.023-.19-15.124,3.022-.042a2.156,2.156,0,0,0,2.144-2.177l-.042-3.873a2.177,2.177,0,0,0-2.179-2.144l-7.441.085A2.145,2.145,0,0,0,1287.879,1444.108Zm.755-.006a1.4,1.4,0,0,1,1.38-1.418l7.441-.086a1.412,1.412,0,0,1,1.416,1.4l.043,3.873a1.415,1.415,0,0,1-1.4,1.417l-7.425.086a1.4,1.4,0,0,1-1.416-1.4Z" fill="#fff"></path></g><g id="Group_101" data-name="Group 101"><path id="Path_392" data-name="Path 392" d="M1201.628,1766.529c.952-7.628,9.615-75.469,20.893-108.021a121.145,121.145,0,0,0,6.653-33.588c1.453-33.893,5.893-115.272,15.776-138.928,12.747-30.669,21.575-46.354,21.663-46.509l-1.148-.652c-.087.155-8.957,15.9-21.735,46.653-9.966,23.85-14.422,105.415-15.879,139.376a119.637,119.637,0,0,1-6.58,33.216c-11.32,32.679-20,100.647-20.955,108.291Z" fill="#202b4c"></path></g><g id="Group_102" data-name="Group 102"><path id="Path_393" data-name="Path 393" d="M1289.335,1713.682c.331-24.063,6.089-47.516,7.015-71.529,1.006-26.117-.011-52.3.906-78.446.452-12.851.724-25.713.728-38.572,0-10.252-1.245-20.381-2.056-30.564-9.278,13.328-13.023,30.048-15.323,46.743,3.6-10.165,6.033-16.833,6.033-16.833s9.74,102.421,2.488,133.967,3.6,106.549,3.6,106.549h1.039A260.986,260.986,0,0,1,1289.335,1713.682Z" fill="#202b4c"></path></g></g></g></g></g><g id="Group_112" data-name="Group 112"><g id="Group_111" data-name="Group 111"><path id="Path_394" data-name="Path 394" d="M1480.2,1373.636c.236-.287.449-.582.7-.842a7.062,7.062,0,0,1,2.661-1.6,3.383,3.383,0,0,0,1.961-2.757,1.219,1.219,0,0,0-.278-.994c-.174-.15-.651-.017-.967.077a8.044,8.044,0,0,1-1.766.6c-2.038.081-3.264,1.7-4.94,2.453-1.766.788-2.97,2.269-4.344,3.534-.809.744-1.543,1.573-2.28,2.392a6.176,6.176,0,0,1-2.452,1.706c-1.953.735-3.854,1.625-5.839,2.254-2.259.716-4.586,1.217-7.053,1.855-.135,4.329-.276,8.832-.42,13.431.722-.319,1.372-.592,2.012-.89,3.219-1.5,6.409-3.063,9.662-4.485a14.093,14.093,0,0,1,6.638-1.041c1.574.1,3.144.4,4.715.392a31.7,31.7,0,0,0,4.233-.491c1.387-.195,2.77-.42,4.15-.661s2.771-.442,4.118-.807a3.226,3.226,0,0,0,2.438-2.683c.062-.523.684-1,1.1-1.456a10.441,10.441,0,0,1,1.032-.911,1.2,1.2,0,0,0,.456-1.327,1,1,0,0,1,.534-1.3,4.911,4.911,0,0,0,2.186-3.184,1.67,1.67,0,0,1,.46-.6.894.894,0,0,0-.342-1.617,3.553,3.553,0,0,0-3.057.4c-.171.092-.332.253-.51.272-1.375.146-2.752.327-4.132.365a8.872,8.872,0,0,1-1.841-.42c-1.363-.272-2.732-.52-4.1-.777Z" fill="#fcb3b3"></path><g id="Group_107" data-name="Group 107"><path id="Path_395" data-name="Path 395" d="M1322.465,1366.8a12.078,12.078,0,0,0,1.325,1.129l51,43.689.016-.016a10.52,10.52,0,0,0,1.358,1.211,8.154,8.154,0,0,0,.769.524c.016-.017.016-.017.016,0a8.381,8.381,0,0,0,1.179.654c.131.065.278.131.409.18a10.088,10.088,0,0,0,5.3.794,11.032,11.032,0,0,0,2.287-.418c8.345-1.652,55.786-10.8,73.327-20.751l-2.41-11.811c-5.808.425-41.529,3.272-69.657,10.849L1340.4,1347.52l-.066.081a13.119,13.119,0,0,0-17.868,19.194Z" fill="#5279f7"></path></g><g id="Group_108" data-name="Group 108"><path id="Path_396" data-name="Path 396" d="M1246.282,1371.456l-.012.654a116.709,116.709,0,0,0,1.69,24.3c.162.9.383,1.79.607,2.567.109.54.278,1.019.388,1.556.281.839.505,1.615.789,2.335a12.853,12.853,0,0,0,.914,2.039,10.26,10.26,0,0,0,1.21,2.1c6.768,9.433,5.5,24.264,4.78,29.546a2.3,2.3,0,0,0,1.657,2.512c42.352,11.915,63.393.649,63.393.649-.514-1.14.381-10.939,1.113-18.3a12.631,12.631,0,0,1,5.354-9.6c5.718-3.583,7.823-14.431,8.559-22.031.5-4.572.506-8.023.506-8.023s4.986-31.436-2.538-36.334c-1.646-1.044-6.451-1.787-12.927-2.264-16.1-1.072-42.766-.379-58.748,1.645-7.274.879-12.294,2.093-13.272,3.5C1248.032,1350.905,1246.6,1360.514,1246.282,1371.456Z" fill="#5279f7"></path></g><path id="Path_397" data-name="Path 397" d="M1304.765,1342.67l11.77,15.651-5.885,6.726,4.98,5.95-10.865,23.54Z" fill="#5279f7"></path><path id="Path_398" data-name="Path 398" d="M1283.533,1343.222l-11.77,15.651,5.885,6.726-4.98,5.95,10.865,23.541Z" fill="#5279f7"></path><g id="Group_109" data-name="Group 109"><path id="Path_399" data-name="Path 399" d="M1254.535,1411.953c3.688,9.045,2.719,20.18,2.113,24.609a2.3,2.3,0,0,0,1.657,2.512c42.352,11.915,63.393.649,63.393.649-.514-1.14.381-10.939,1.113-18.3a12.7,12.7,0,0,1,5.178-9.467Z" fill="#eaeafa"></path></g><g id="Group_110" data-name="Group 110"><path id="Path_400" data-name="Path 400" d="M1304.765,1342.671l1.487,78.763c-2.851-.677-5.643-1.917-8.509-1.8-4.933.094-9.35,3.776-14.21,4.678V1343.3C1291.037,1342.851,1297.453,1342.615,1304.765,1342.671Z" fill="#eaeafa"></path></g><path id="Path_401" data-name="Path 401" d="M1247.979,1396.412a23.468,23.468,0,0,0,.59,2.553c.1.54.261,1.063.392,1.587.278.834.508,1.587.786,2.307a13.431,13.431,0,0,0,.883,2.045,12.475,12.475,0,0,0,1.227,2.111c4.287,5.989,5.351,14.121,5.384,20.618,0,.654-.016,1.292-.033,1.93h13.09a13.233,13.233,0,0,0,13.238-13.237v-9.475c-.229.05-.458.066-.687.1-6.414.638-12.632-3.027-16.772-7.936-4.14-4.942-6.611-11.078-9.1-17-1.784-4.254-4.418-9.13-8.8-9.817a10.285,10.285,0,0,0-1.882-.753l-.016.671A113.709,113.709,0,0,0,1247.979,1396.412Z" fill="#5279f7"></path><path id="Path_402" data-name="Path 402" d="M1306.771,1404.708c-.179-.033-.343-.065-.523-.114v11.732a13.233,13.233,0,0,0,13.237,13.237h2.978c0-2.7.1-5.563.344-8.132a12.585,12.585,0,0,1,5.384-9.6c5.677-3.584,7.8-14.416,8.525-22.025-2.422,3.813-4.647,7.577-8.754,10.424A28.389,28.389,0,0,1,1306.771,1404.708Z" fill="#5279f7"></path></g></g></g></g></g></g></g><g id="Group_125" data-name="Group 125"><g id="Group_118" data-name="Group 118"><path id="Path_403" data-name="Path 403" d="M1269.845,1306.27a14.628,14.628,0,0,0,3.021,3.408,31.36,31.36,0,0,1,3.2,2.412,10.978,10.978,0,0,1,3.886,8.411v14.856c0,7.442,5.608,13.945,13.034,14.437a13.969,13.969,0,0,0,14.913-13.932v-8.541a.146.146,0,0,1,.077-.019,18.456,18.456,0,0,0,12.357-17.43v-19.29a18.477,18.477,0,0,0-18.477-18.476h-3.486a18.5,18.5,0,0,0-18.5,18.495v10.188a6.548,6.548,0,0,0-2.053-3.157,5.907,5.907,0,0,0-7.824.678A6.352,6.352,0,0,0,1269.845,1306.27Z" fill="#fcb3b3"></path><path id="Path_404" data-name="Path 404" d="M1292.233,1324.378a15.334,15.334,0,0,0,11.544,9.2,15.529,15.529,0,0,0,4.125.154v-6.41a21.281,21.281,0,0,1-2.518.369A20.622,20.622,0,0,1,1292.233,1324.378Z" fill="#fc8e8e"></path></g><g id="Group_119" data-name="Group 119"><path id="Path_405" data-name="Path 405" d="M1265.967,1320.174c5.745,10.231,3.749,27.9,7.587,27.012,0,0,6.641,0,11.388-8.963a14.152,14.152,0,0,0,1.568-6.745l0-.281a14.205,14.205,0,0,0-2.584-8.122,80.329,80.329,0,0,1-5.886-9.915,36.059,36.059,0,0,0-2.909-4.739,28.239,28.239,0,0,1-4.142-22.5c-.539-2.486-.49-4.088.458-4.088a1.717,1.717,0,0,0,1.079-.572,24.924,24.924,0,0,1,2.993-5.151,110.311,110.311,0,0,0,4.1-12.754l7.865,4.644c2.305-.654,26.439,5.134,29.938,13.244a23.9,23.9,0,0,1,4.611,7.161l2.06,1.227c.883-14.977-6.508-28.336-11.331-33.421-4.807-5.069-31.966-14.176-45.619,4.431C1253.491,1279.216,1260.054,1309.645,1265.967,1320.174Z" fill="#202b4c"></path></g><path id="Path_406" data-name="Path 406" d="M1280.026,1269.225a38.053,38.053,0,0,0,3.54,3.614c4.21,3.249,9.412,4.837,14.483,6.434s10.249,3.349,14.307,6.836a23.39,23.39,0,0,1,7.618,17.792,31.559,31.559,0,0,1-6.675,18.5c-3.976,5.331-9.562,9.995-10.751,16.519a13.743,13.743,0,0,0,17.536,15.616,9.025,9.025,0,0,1-4.776-10.106c.645-2.626,2.5-4.791,4.082-7.009a50.27,50.27,0,0,0,5.819-47.737c-2.19-5.327-5.416-10.4-10.092-13.788-5.839-4.276-13.285-5.514-20.325-7.136a45.508,45.508,0,0,1-12.749-4.689,6.805,6.805,0,0,1-.78-.483c-.27-.15-.51-.333-.748-.485-.136-.09-.274-.214-.41-.306a10.848,10.848,0,0,1-3.131-3.931S1276.76,1265.827,1280.026,1269.225Z" fill="#202b4c"></path><g id="Group_124" data-name="Group 124"><g id="Group_120" data-name="Group 120"><path id="Path_407" data-name="Path 407" d="M1297.506,1318.329a8.624,8.624,0,0,0,2.822-.524.976.976,0,1,0-.653-1.84,6.06,6.06,0,0,1-7.4-2.716.976.976,0,0,0-1.71.942A8.11,8.11,0,0,0,1297.506,1318.329Z" fill="#fff"></path></g><g id="Group_123" data-name="Group 123"><path id="Path_408" data-name="Path 408" d="M1295.236,1291.516a10.7,10.7,0,0,1-7.854.959c-.536-.15-.586-.6-.1-.888a10.769,10.769,0,0,1,7.837-.958C1295.654,1290.78,1295.721,1291.232,1295.236,1291.516Z" fill="#121c7c"></path><path id="Path_409" data-name="Path 409" d="M1314.748,1292.577a10.7,10.7,0,0,1-7.825-1.164c-.477-.288-.405-.738.138-.883a10.764,10.764,0,0,1,7.81,1.16C1315.348,1291.978,1315.292,1292.431,1314.748,1292.577Z" fill="#121c7c"></path><g id="Group_121" data-name="Group 121"><path id="Path_410" data-name="Path 410" d="M1311.58,1299.968a1.857,1.857,0,1,1-2-1.7A1.857,1.857,0,0,1,1311.58,1299.968Z" fill="#121c7c"></path></g><g id="Group_122" data-name="Group 122"><path id="Path_411" data-name="Path 411" d="M1294.086,1299.976a1.856,1.856,0,1,1-2-1.7A1.856,1.856,0,0,1,1294.086,1299.976Z" fill="#121c7c"></path></g><path id="Path_412" data-name="Path 412" d="M1298.095,1310.279l4.816.081a1.081,1.081,0,0,0,1.08-1.3l-2.667-6.748a.983.983,0,0,0-1.879-.024l-2.386,6.655A1.082,1.082,0,0,0,1298.095,1310.279Z" fill="#fc8e8e"></path></g></g></g><path id="Path_413" data-name="Path 413" d="M1483.559,1371.191a7.07,7.07,0,0,0-2.661,1.6c-.206.215-.388.458-.578.7h-6.456a13.151,13.151,0,0,1,3.7-2.918c1.676-.749,2.9-2.372,4.94-2.454a7.989,7.989,0,0,0,1.766-.6c.316-.094.793-.227.967-.077a1.219,1.219,0,0,1,.278.994A3.383,3.383,0,0,1,1483.559,1371.191Z" fill="#fcb3b3"></path><path id="Path_414" data-name="Path 414" d="M1244.13,1367.813a13.235,13.235,0,0,0,1.1,1.329l42.5,50.99a9.76,9.76,0,0,0,1.212,1.5c.035.039.065.08.1.118.114.117.227.234.344.345a11,11,0,0,0,3.962,2.46c8.734,4.641,49.7,26.016,69.022,29.28l5.453-10.152c-4.82-3.367-34.99-24.186-61.721-35.913-.163-.235-.341-.47-.53-.695l-40.714-55.15-.08.058a13.019,13.019,0,0,0-20.653,15.834Z" fill="#5279f7"></path></g></g></svg>