<svg xmlns="http://www.w3.org/2000/svg" width="135.955" height="309.465" viewBox="0 0 135.955 309.465">
  <g id="Character_1" data-name="Character 1" transform="translate(-148.315 -151.63)">
    <g id="Group_739" data-name="Group 739">
      <g id="Group_493" data-name="Group 493">
        <g id="Group_484" data-name="Group 484">
          <path id="Path_166" data-name="Path 166" d="M283.967,202.707a2.7,2.7,0,0,1-.042,2.562L263,242.648a13.231,13.231,0,0,1-17.733,4.479l-11.7-6.634,8.108-14.061,8.692,5.241,21.025-27.787a26.041,26.041,0,0,0,.311-4.657,7.03,7.03,0,0,0-.433-2.348,10.793,10.793,0,0,0-1.3-2.678.923.923,0,0,1,.8-1.552c.808.2,2.467,2.109,3.227,4.962s2.665-1.385,3.387-2.916,3.177-6.166,3.823-6.317c.949-.221,1.361.754.6,2.267-.765,1.531-2.7,6.209-1.878,6.551,0,0,1.467.337,1.831,1.248Z" fill="#ffbe9d"/>
        </g>
        <g id="Group_486" data-name="Group 486">
          <g id="Group_485" data-name="Group 485">
            <path id="Path_167" data-name="Path 167" d="M281.381,197.906a6.388,6.388,0,0,1-.427,1.766q-.29.9-.6,1.864l-.37,1.094a1.586,1.586,0,0,1-.334.633.768.768,0,0,1-.871.115,2.871,2.871,0,0,1-.584-.385,1.172,1.172,0,0,1-.431-.629,2.34,2.34,0,0,1,.264-1.253l.718-1.82a6.325,6.325,0,0,1,.787-1.631,6.314,6.314,0,0,1-.44,1.756l-.614,1.858a2.171,2.171,0,0,0-.219.972c.032.215.438.5.728.655.158.065.231.055.3-.01a1.261,1.261,0,0,0,.22-.444c.135-.369.268-.729.4-1.084.243-.63.476-1.236.7-1.824A6.239,6.239,0,0,1,281.381,197.906Z" fill="#eb996e"/>
          </g>
        </g>
        <g id="Group_488" data-name="Group 488">
          <g id="Group_487" data-name="Group 487">
            <path id="Path_168" data-name="Path 168" d="M282.144,201.067a5.159,5.159,0,0,1-.364,1.6c-.175.556-.351,1.119-.533,1.7l-.162.489a1.128,1.128,0,0,1-.375.561.781.781,0,0,1-.777.034,2.718,2.718,0,0,1-.532-.342,1.328,1.328,0,0,1-.442-.543,1.13,1.13,0,0,1-.016-.7c.116-.4.248-.687.365-1.009.224-.561.442-1.107.657-1.647a5.218,5.218,0,0,1,.729-1.473,5.206,5.206,0,0,1-.383,1.6c-.181.552-.364,1.112-.551,1.686-.1.308-.241.664-.322.967a.591.591,0,0,0,.285.711c.285.237.6.4.7.3.143-.08.262-.508.376-.8l.635-1.649A5.283,5.283,0,0,1,282.144,201.067Z" fill="#eb996e"/>
          </g>
        </g>
        <g id="Group_490" data-name="Group 490">
          <g id="Group_489" data-name="Group 489">
            <path id="Path_169" data-name="Path 169" d="M283.535,202.819a5.219,5.219,0,0,1-.365,1.6c-.174.556-.351,1.119-.533,1.7l-.162.489a1.136,1.136,0,0,1-.374.561.785.785,0,0,1-.778.033,2.7,2.7,0,0,1-.532-.342,1.315,1.315,0,0,1-.441-.542,1.138,1.138,0,0,1-.017-.7c.116-.4.249-.687.366-1.009l.656-1.648a5.233,5.233,0,0,1,.729-1.472,5.218,5.218,0,0,1-.383,1.6c-.181.552-.363,1.111-.551,1.685-.1.309-.24.664-.322.967a.594.594,0,0,0,.285.712c.285.237.6.4.7.3.144-.081.262-.508.376-.8l.635-1.649A5.217,5.217,0,0,1,283.535,202.819Z" fill="#eb996e"/>
          </g>
        </g>
        <g id="Group_492" data-name="Group 492">
          <g id="Group_491" data-name="Group 491">
            <path id="Path_170" data-name="Path 170" d="M277.23,206.485a13.947,13.947,0,0,0-.369-3.051,14,14,0,0,0-1.475-2.7c.04-.05.372.119.792.544a5.221,5.221,0,0,1,1.38,4.3C277.464,206.171,277.292,206.5,277.23,206.485Z" fill="#eb996e"/>
          </g>
        </g>
      </g>
      <g id="Group_541" data-name="Group 541">
        <g id="Group_532" data-name="Group 532">
          <g id="Group_494" data-name="Group 494">
            <path id="Path_171" data-name="Path 171" d="M210.949,154.2a8.836,8.836,0,0,0-9.844-1.784c-1.484.7-2.778,1.829-4.366,2.245-1.9.5-3.892-.1-5.843-.345s-4.252.045-5.323,1.693c-.689,1.062-.727,2.509-1.624,3.4-1.238,1.233-3.317.741-4.994,1.232a4.659,4.659,0,0,0-3.158,3.7,5.542,5.542,0,0,0,1.6,4.682,8.549,8.549,0,0,1,1.995,2.141c.545,1.163.131,2.517-.078,3.783s-.046,2.845,1.106,3.411a1.736,1.736,0,0,0,2.421-2.083l24.229-7.761c3.654,0,4.807-3.289,5.385-4.428A8.837,8.837,0,0,0,210.949,154.2Z" fill="#202b4c"/>
          </g>
          <g id="Group_519" data-name="Group 519">
            <g id="Group_518" data-name="Group 518">
              <g id="Group_517" data-name="Group 517">
                <g id="Group_496" data-name="Group 496">
                  <g id="Group_495" data-name="Group 495">
                    <path id="Path_172" data-name="Path 172" d="M182.08,162.614l.052,2.62.526,39.215c.061,4.552,4.024,8.126,8.9,8.023h0c4.923-.1,8.921-3.914,8.935-8.514.015-4.828.119-9.91.119-9.91s6.22-1.033,7.508-9.148c.641-4.036.438-10.653.1-16.062a8.569,8.569,0,0,0-9.452-7.988Z" fill="#ffbe9d"/>
                  </g>
                </g>
                <g id="Group_502" data-name="Group 502">
                  <g id="Group_498" data-name="Group 498">
                    <g id="Group_497" data-name="Group 497">
                      <path id="Path_173" data-name="Path 173" d="M206.553,173.446a1.04,1.04,0,0,1-1,1.05,1,1,0,0,1-1.073-.938,1.041,1.041,0,0,1,1-1.051A1,1,0,0,1,206.553,173.446Z" fill="#263238"/>
                    </g>
                  </g>
                  <g id="Group_501" data-name="Group 501">
                    <g id="Group_500" data-name="Group 500">
                      <g id="Group_499" data-name="Group 499">
                        <path id="Path_174" data-name="Path 174" d="M206.78,172.281c-.129.135-.917-.448-2.037-.445-1.119-.013-1.941.563-2.062.426-.06-.061.071-.306.429-.566a2.855,2.855,0,0,1,1.651-.509,2.742,2.742,0,0,1,1.622.523C206.727,171.975,206.844,172.22,206.78,172.281Z" fill="#263238"/>
                      </g>
                    </g>
                  </g>
                </g>
                <g id="Group_508" data-name="Group 508">
                  <g id="Group_504" data-name="Group 504">
                    <g id="Group_503" data-name="Group 503">
                      <path id="Path_175" data-name="Path 175" d="M195.344,173.446a1.04,1.04,0,0,1-1,1.05,1,1,0,0,1-1.073-.938,1.041,1.041,0,0,1,1-1.051A1,1,0,0,1,195.344,173.446Z" fill="#263238"/>
                    </g>
                  </g>
                  <g id="Group_507" data-name="Group 507">
                    <g id="Group_506" data-name="Group 506">
                      <g id="Group_505" data-name="Group 505">
                        <path id="Path_176" data-name="Path 176" d="M195.772,172.49c-.129.135-.919-.448-2.038-.445-1.118-.013-1.94.563-2.062.426-.059-.061.071-.306.43-.566a2.85,2.85,0,0,1,1.651-.509,2.741,2.741,0,0,1,1.621.523C195.718,172.184,195.835,172.429,195.772,172.49Z" fill="#263238"/>
                      </g>
                    </g>
                  </g>
                </g>
                <g id="Group_511" data-name="Group 511">
                  <g id="Group_510" data-name="Group 510">
                    <g id="Group_509" data-name="Group 509">
                      <path id="Path_177" data-name="Path 177" d="M199.836,180.795a7.39,7.39,0,0,1,1.819-.328c.286-.03.557-.086.6-.282a1.446,1.446,0,0,0-.191-.847q-.4-1.038-.846-2.178a37.435,37.435,0,0,1-1.9-5.7,37.558,37.558,0,0,1,2.353,5.53q.425,1.146.811,2.191a1.655,1.655,0,0,1,.148,1.122.716.716,0,0,1-.47.418,1.968,1.968,0,0,1-.486.068A7.258,7.258,0,0,1,199.836,180.795Z" fill="#263238"/>
                    </g>
                  </g>
                </g>
                <g id="Group_513" data-name="Group 513">
                  <g id="Group_512" data-name="Group 512">
                    <path id="Path_178" data-name="Path 178" d="M200.61,194.048a20.652,20.652,0,0,1-10.868-2.9s2.637,5.575,10.759,4.815Z" fill="#eb996e"/>
                  </g>
                </g>
                <g id="Group_516" data-name="Group 516">
                  <g id="Group_515" data-name="Group 515">
                    <g id="Group_514" data-name="Group 514">
                      <path id="Path_179" data-name="Path 179" d="M196.541,181.57c.182-.011.184,1.2,1.224,2.068s2.335.729,2.344.9c.017.076-.288.236-.835.251a3.029,3.029,0,0,1-1.957-.682,2.641,2.641,0,0,1-.949-1.734C196.322,181.864,196.457,181.563,196.541,181.57Z" fill="#263238"/>
                    </g>
                  </g>
                </g>
              </g>
            </g>
          </g>
          <g id="Group_521" data-name="Group 521">
            <g id="Group_520" data-name="Group 520">
              <path id="Path_180" data-name="Path 180" d="M196.061,168.1c-.11.3-1.228.16-2.542.318-1.317.132-2.377.517-2.551.244-.078-.131.107-.417.535-.712a4.452,4.452,0,0,1,3.88-.428C195.866,167.717,196.109,167.956,196.061,168.1Z" fill="#263238"/>
            </g>
          </g>
          <g id="Group_523" data-name="Group 523">
            <g id="Group_522" data-name="Group 522">
              <path id="Path_181" data-name="Path 181" d="M206.368,169.04c-.2.254-.968-.01-1.9-.022-.927-.045-1.713.17-1.894-.1-.079-.129.045-.384.388-.624a2.746,2.746,0,0,1,3.054.094C206.348,168.654,206.455,168.916,206.368,169.04Z" fill="#263238"/>
            </g>
          </g>
          <g id="Group_525" data-name="Group 525">
            <g id="Group_524" data-name="Group 524">
              <path id="Path_182" data-name="Path 182" d="M208.485,165.239s-4.144,2.17-9.707-.391c-3.651-1.68-7.868-2.424-8.769-1.672s-.979,4.461-4.505,5.655c0,0,.468,7.058-2.357,6.9s-2.4-14.329-2.4-14.329l7.774-.417L196,159.322l7.118.775,5.531,1.328Z" fill="#263238"/>
            </g>
          </g>
          <g id="Group_528" data-name="Group 528">
            <g id="Group_527" data-name="Group 527">
              <g id="Group_526" data-name="Group 526">
                <path id="Path_183" data-name="Path 183" d="M180.557,159.38c-.039-.106.626-.357,1.406-.074s1.135.894,1.037.952c-.1.077-.525-.325-1.181-.552S180.581,159.5,180.557,159.38Z" fill="#263238"/>
              </g>
            </g>
          </g>
          <g id="Group_531" data-name="Group 531">
            <g id="Group_530" data-name="Group 530">
              <g id="Group_529" data-name="Group 529">
                <path id="Path_184" data-name="Path 184" d="M182.9,156.993c.131.01.086.839.233,1.8s.559,1.655.458,1.727c-.079.08-.716-.586-.877-1.659A2.757,2.757,0,0,1,182.9,156.993Z" fill="#263238"/>
              </g>
            </g>
          </g>
        </g>
        <g id="Group_540" data-name="Group 540">
          <g id="Group_535" data-name="Group 535">
            <g id="Group_534" data-name="Group 534">
              <g id="Group_533" data-name="Group 533">
                <path id="Path_185" data-name="Path 185" d="M183.311,172.816c-.116-.056-4.691-1.606-4.74,3.127s4.713,3.806,4.723,3.67S183.311,172.816,183.311,172.816Z" fill="#ffbe9d"/>
              </g>
            </g>
          </g>
          <g id="Group_539" data-name="Group 539">
            <g id="Group_538" data-name="Group 538">
              <g id="Group_537" data-name="Group 537">
                <g id="Group_536" data-name="Group 536">
                  <path id="Path_186" data-name="Path 186" d="M181.867,177.8c-.021-.015-.084.057-.224.119a.821.821,0,0,1-.616.007,2.041,2.041,0,0,1-.925-1.841,2.718,2.718,0,0,1,.243-1.178.95.95,0,0,1,.627-.626.419.419,0,0,1,.484.231c.062.133.031.227.056.235s.1-.078.066-.274a.523.523,0,0,0-.183-.3.617.617,0,0,0-.455-.125,1.158,1.158,0,0,0-.869.724,2.806,2.806,0,0,0-.3,1.317,2.14,2.14,0,0,0,1.182,2.056.884.884,0,0,0,.755-.117C181.857,177.919,181.883,177.814,181.867,177.8Z" fill="#eb996e"/>
                </g>
              </g>
            </g>
          </g>
        </g>
      </g>
      <g id="Group_588" data-name="Group 588">
        <g id="Group_581" data-name="Group 581">
          <g id="Group_542" data-name="Group 542">
            <path id="Path_187" data-name="Path 187" d="M201.894,204.22c3.476.2,9.318.669,20.849,7.409,2.518,1.472,28.388,18.842,28.388,18.842l-11.455,14.66-21.092-11.88,2.841,25.255,3.161,30.031-51.109-.649L172.2,257.727l-.432-20.514L168.526,264.6l-20.211-1.921,5.575-36.082a24.044,24.044,0,0,1,5.325-12c3.476-4.065,7.916-6.532,12.986-8.366a42.623,42.623,0,0,1,9.526-1.74l-.166-6.035s9.09.85,11.511,6.688c0,0,3.015-6.9,8.854-7.472Z" fill="#5279f7"/>
          </g>
          <g id="Group_544" data-name="Group 544">
            <g id="Group_543" data-name="Group 543">
              <path id="Path_188" data-name="Path 188" d="M188.218,286.571a7.684,7.684,0,0,1-1.4-2.986,27.208,27.208,0,0,1-.862-8.937c.056-1.89.212-3.946.305-6.134a54.787,54.787,0,0,0-.135-6.949,132.972,132.972,0,0,0-2.745-15.8,94.251,94.251,0,0,1-2.359-16.082c-.126-5.032.3-9.471.062-13.172a27.083,27.083,0,0,0-1.679-8.545c-.76-1.924-1.417-2.892-1.309-2.964a7.531,7.531,0,0,1,1.866,2.718,24.477,24.477,0,0,1,2.224,8.711c.38,3.794.07,8.3.274,13.193a102.3,102.3,0,0,0,2.449,15.818,118.8,118.8,0,0,1,2.652,16.012,52.454,52.454,0,0,1-.006,7.131c-.178,2.2-.343,4.244-.5,6.118a30.788,30.788,0,0,0,.347,8.731C187.845,285.454,188.343,286.513,188.218,286.571Z" fill="#fafafa"/>
            </g>
          </g>
          <g id="Group_546" data-name="Group 546">
            <g id="Group_545" data-name="Group 545">
              <path id="Path_189" data-name="Path 189" d="M209.276,288.029a13.311,13.311,0,0,1-.521-3.23c-.229-2.137-.551-5.141-.946-8.832-.788-7.455-1.966-17.742-3.639-29.05-.833-5.657-1.7-11.034-2.543-15.917s-1.642-9.292-2.082-13.039a64.548,64.548,0,0,1-.528-8.917,11.042,11.042,0,0,1,.321-3.265c.245.007.093,4.653,1.3,12.03.575,3.69,1.482,8.052,2.4,12.936s1.836,10.27,2.672,15.944c1.678,11.345,2.685,21.685,3.193,29.181.259,3.748.4,6.785.453,8.886A13.179,13.179,0,0,1,209.276,288.029Z" fill="#fafafa"/>
            </g>
          </g>
          <g id="Group_548" data-name="Group 548">
            <g id="Group_547" data-name="Group 547">
              <path id="Path_190" data-name="Path 190" d="M208.138,205.141a25.005,25.005,0,0,1,.506,3.232,66.558,66.558,0,0,0,2.185,8.6c.538,1.807,1.15,3.791,1.657,5.981a50.749,50.749,0,0,1,1.093,7.084c.45,5.028.387,10.511.7,16.236.575,11.47,1.7,21.827,2.454,29.331.384,3.751.686,6.79.859,8.895a13.379,13.379,0,0,1,.113,3.289,13.343,13.343,0,0,1-.716-3.212c-.359-2.082-.828-5.1-1.352-8.84-1.034-7.477-2.339-17.847-2.918-29.386-.317-5.772-.213-11.274-.576-16.195a53.084,53.084,0,0,0-.925-6.925c-.439-2.145-.985-4.133-1.455-5.96a49.92,49.92,0,0,1-1.725-8.823A9.166,9.166,0,0,1,208.138,205.141Z" fill="#fafafa"/>
            </g>
          </g>
          <g id="Group_550" data-name="Group 550">
            <g id="Group_549" data-name="Group 549">
              <path id="Path_191" data-name="Path 191" d="M200.077,204.851c-.448-.072-.507-1.386-.881-2.726s-1-2.5-.653-2.79c.162-.134.535-.006.975.388a4.379,4.379,0,0,1,1.193,4.292C200.539,204.58,200.285,204.882,200.077,204.851Z" fill="#fafafa"/>
            </g>
          </g>
          <g id="Group_552" data-name="Group 552">
            <g id="Group_551" data-name="Group 551">
              <path id="Path_192" data-name="Path 192" d="M183.952,205.381c-.191.076-.539-.216-.788-.86a4.524,4.524,0,0,1,1.346-4.856c.546-.423.994-.494,1.118-.33.253.362-.626,1.421-1.025,2.971C184.147,203.839,184.354,205.2,183.952,205.381Z" fill="#fafafa"/>
            </g>
          </g>
          <g id="Group_554" data-name="Group 554">
            <g id="Group_553" data-name="Group 553">
              <path id="Path_193" data-name="Path 193" d="M199.929,287.561c-.138-.026.114-1.169,0-3.224a31.568,31.568,0,0,0-1.983-8.487c-.6-1.763-1.309-3.7-1.919-5.839s-1.156-4.446-1.622-6.893c-.937-4.9-1.562-10.313-2.282-15.97-1.417-11.333-2.614-21.6-3.4-29.045-.394-3.721-.687-6.736-.854-8.823a13.119,13.119,0,0,1-.1-3.262,13.169,13.169,0,0,1,.705,3.186c.352,2.065.811,5.059,1.346,8.762,1.069,7.408,2.439,17.655,3.856,28.988.721,5.666,1.3,11.068,2.148,15.906.421,2.42.9,4.7,1.456,6.808s1.187,4.042,1.721,5.846a27.7,27.7,0,0,1,1.539,8.815A7.08,7.08,0,0,1,199.929,287.561Z" fill="#fafafa"/>
            </g>
          </g>
          <g id="Group_556" data-name="Group 556">
            <g id="Group_555" data-name="Group 555">
              <path id="Path_194" data-name="Path 194" d="M179.073,286.434c-.222.014-.6-3.085-1.175-8.091s-1.361-11.921-2.166-19.575-1.372-14.614-1.608-19.66-.192-8.176.015-8.186c.224-.012.566,3.091,1.087,8.1.534,5.076,1.259,11.966,2.06,19.582.8,7.65,1.43,14.6,1.713,19.642S179.281,286.421,179.073,286.434Z" fill="#fafafa"/>
            </g>
          </g>
          <g id="Group_558" data-name="Group 558">
            <g id="Group_557" data-name="Group 557">
              <path id="Path_195" data-name="Path 195" d="M151.815,262.893c-.21-.051.375-3.33,1.49-8.592s2.762-12.5,4.673-20.481l2.756-11.234a35.174,35.174,0,0,1,3.126-9.047,12.349,12.349,0,0,1,4.5-4.711c1.365-.756,2.242-.839,2.262-.756.042.121-.752.4-1.932,1.267a13.144,13.144,0,0,0-3.855,4.722,38.279,38.279,0,0,0-2.7,8.861c-.811,3.469-1.7,7.269-2.635,11.262-1.912,7.977-3.728,15.179-5.118,20.375S152.024,262.943,151.815,262.893Z" fill="#fafafa"/>
            </g>
          </g>
          <g id="Group_560" data-name="Group 560">
            <g id="Group_559" data-name="Group 559">
              <path id="Path_196" data-name="Path 196" d="M175.7,212.2c.085.1-.472.608-1.052,1.818A27.04,27.04,0,0,0,172.8,219.4l-.933,3.874c-.311,1.385-.571,2.894-.9,4.5a30.068,30.068,0,0,1-1.418,5,52.259,52.259,0,0,1-2.348,5.01c-.858,1.663-1.716,3.267-2.389,4.839a23.275,23.275,0,0,0-1.318,4.722,66.889,66.889,0,0,0-.865,8.462c-.207,4.869-.136,7.905-.37,7.918-.2.014-.66-3-.734-7.938a54.264,54.264,0,0,1,.55-8.683,23.3,23.3,0,0,1,1.326-5.074c.7-1.679,1.556-3.3,2.413-4.963s1.669-3.263,2.311-4.856a30.814,30.814,0,0,0,1.436-4.746c.362-1.563.672-3.08,1.049-4.495s.754-2.684,1.129-3.872a20.894,20.894,0,0,1,2.386-5.391C174.907,212.514,175.654,212.12,175.7,212.2Z" fill="#fafafa"/>
            </g>
          </g>
          <g id="Group_562" data-name="Group 562">
            <g id="Group_561" data-name="Group 561">
              <path id="Path_197" data-name="Path 197" d="M246.507,235.761c-.081.188-2.053-.471-4.949-2.1a63.258,63.258,0,0,1-10.57-7.493c-1.924-1.727-3.475-3.521-5.038-4.991a29.065,29.065,0,0,0-4.357-3.569c-2.686-1.749-4.716-2.158-4.649-2.422.019-.094.546-.109,1.469.076a13.505,13.505,0,0,1,3.74,1.394,24.366,24.366,0,0,1,4.777,3.467c1.66,1.454,3.283,3.255,5.1,4.88a102.82,102.82,0,0,0,10.108,7.717C244.837,234.561,246.6,235.554,246.507,235.761Z" fill="#fafafa"/>
            </g>
          </g>
          <g id="Group_564" data-name="Group 564">
            <g id="Group_563" data-name="Group 563">
              <path id="Path_198" data-name="Path 198" d="M241.735,242.495c-.128.181-1.528-.582-3.732-1.885s-5.232-3.122-8.54-5.225a80.32,80.32,0,0,1-8.2-5.841c-1.986-1.659-3.062-2.858-2.928-3.013.146-.172,1.464.718,3.588,2.128s5.085,3.313,8.384,5.409,6.254,4.074,8.312,5.623S241.857,242.325,241.735,242.495Z" fill="#fafafa"/>
            </g>
          </g>
          <g id="Group_566" data-name="Group 566">
            <g id="Group_565" data-name="Group 565">
              <path id="Path_199" data-name="Path 199" d="M170.721,207.414c.007-.016.116.019.32.1a6.287,6.287,0,0,1,.86.424,9.365,9.365,0,0,1,2.62,2.36,12.433,12.433,0,0,1,2.2,4.745,17.407,17.407,0,0,1,.15,6.4,35.887,35.887,0,0,1-1.573,6.186c-.627,1.854-1.246,3.5-1.73,4.889s-.848,2.524-1.081,3.314a7.486,7.486,0,0,1-.4,1.222,5.5,5.5,0,0,1,.205-1.271c.176-.809.487-1.968.933-3.378.845-2.827,2.458-6.616,3.142-11.035a17.553,17.553,0,0,0-.1-6.223,12.556,12.556,0,0,0-2.034-4.634A11.368,11.368,0,0,0,170.721,207.414Z" fill="#263238"/>
            </g>
          </g>
          <g id="Group_568" data-name="Group 568">
            <g id="Group_567" data-name="Group 567">
              <path id="Path_200" data-name="Path 200" d="M219.215,238.859a5.716,5.716,0,0,1-.209-1.216c-.112-.887-.252-2-.419-3.327-.354-2.916-.819-6.747-1.334-10.982s-.98-8.067-1.335-10.983c-.16-1.326-.295-2.441-.4-3.328a5.818,5.818,0,0,1-.1-1.229,5.748,5.748,0,0,1,.294,1.2c.15.779.345,1.909.562,3.309.434,2.8.962,6.679,1.483,10.972s.933,8.182,1.188,11.005c.126,1.411.213,2.554.259,3.346A5.848,5.848,0,0,1,219.215,238.859Z" fill="#263238"/>
            </g>
          </g>
          <g id="Group_570" data-name="Group 570">
            <g id="Group_569" data-name="Group 569">
              <path id="Path_201" data-name="Path 201" d="M191.346,202.835a2.406,2.406,0,0,0-1.7.223,2.889,2.889,0,0,0-1.207,1.4,7.2,7.2,0,0,0-.381,1.084c-.052.2-.1.4-.157.6a1.528,1.528,0,0,1-.323.7.7.7,0,0,1-.449.217.935.935,0,0,1-.426-.08c-.225-.1-.391-.185-.584-.277l-1.069-.525-1.8-.916a6.948,6.948,0,0,1-1.6-.96,6.875,6.875,0,0,1,1.754.638l1.844.818,1.082.5.557.258c.179.066.245.058.325-.02a4.128,4.128,0,0,0,.369-1.088,6.868,6.868,0,0,1,.438-1.149,3.108,3.108,0,0,1,1.463-1.519,2.092,2.092,0,0,1,1.415-.164C191.225,202.674,191.361,202.812,191.346,202.835Z" fill="#263238"/>
            </g>
          </g>
          <g id="Group_572" data-name="Group 572">
            <g id="Group_571" data-name="Group 571">
              <path id="Path_202" data-name="Path 202" d="M202.024,203.848a27.827,27.827,0,0,1-3.942,3.275l-.327.247-.071-.406c-.029-.165-.06-.339-.091-.516a6.012,6.012,0,0,0-1.478-3.479,5.352,5.352,0,0,0-1.345-.849c-.017-.053.728-.113,1.582.583a4.126,4.126,0,0,1,1.121,1.494,8.893,8.893,0,0,1,.616,2.162c.031.179.061.355.089.521l-.4-.159A27.964,27.964,0,0,1,202.024,203.848Z" fill="#263238"/>
            </g>
          </g>
          <g id="Group_574" data-name="Group 574">
            <g id="Group_573" data-name="Group 573">
              <path id="Path_203" data-name="Path 203" d="M167.684,263.711a14.81,14.81,0,0,1-2.446-.681c-1.494-.46-3.564-1.071-5.874-1.653s-4.425-1.019-5.959-1.32a14.8,14.8,0,0,1-2.477-.556,11.147,11.147,0,0,1,2.536.2,58.781,58.781,0,0,1,11.888,2.987A11.168,11.168,0,0,1,167.684,263.711Z" fill="#263238"/>
            </g>
          </g>
          <g id="Group_576" data-name="Group 576">
            <g id="Group_575" data-name="Group 575">
              <path id="Path_204" data-name="Path 204" d="M152.568,257.408a10.961,10.961,0,0,1,2.417.5c1.472.383,3.491.981,5.683,1.748,1.1.383,2.134.772,3.069,1.143a15.288,15.288,0,0,1,2.448,1.135c1.374.824,1.679,1.883,1.611,1.874a5.483,5.483,0,0,0-1.79-1.567,18.774,18.774,0,0,0-2.434-1.008l-3.07-1.1c-2.183-.764-4.175-1.412-5.618-1.882A13.218,13.218,0,0,1,152.568,257.408Z" fill="#263238"/>
            </g>
          </g>
          <g id="Group_578" data-name="Group 578">
            <g id="Group_577" data-name="Group 577">
              <path id="Path_205" data-name="Path 205" d="M241.275,241.257a7.96,7.96,0,0,1,.859-1.941,45.028,45.028,0,0,1,5.78-8.424,7.906,7.906,0,0,1,1.5-1.5c.113.1-1.977,2.557-4.216,5.833S241.409,241.327,241.275,241.257Z" fill="#263238"/>
            </g>
          </g>
          <g id="Group_580" data-name="Group 580">
            <g id="Group_579" data-name="Group 579">
              <path id="Path_206" data-name="Path 206" d="M239.765,238.887a5.959,5.959,0,0,1,.887-1.75,21.256,21.256,0,0,1,6.693-6.622,5.957,5.957,0,0,1,1.759-.868,56.841,56.841,0,0,0-5.123,4.162A56.583,56.583,0,0,0,239.765,238.887Z" fill="#263238"/>
            </g>
          </g>
        </g>
        <g id="Group_583" data-name="Group 583">
          <g id="Group_582" data-name="Group 582">
            <path id="Path_207" data-name="Path 207" d="M203.836,290.248a4.7,4.7,0,0,1-.135-.8q-.109-.864-.29-2.312c-.241-2.062-.58-4.957-.995-8.511-.832-7.187-1.981-17.115-3.345-28.068s-2.7-20.863-3.77-28.016c-.549-3.574-.981-6.469-1.324-8.462q-.228-1.443-.364-2.3a4.878,4.878,0,0,1-.093-.809,4.619,4.619,0,0,1,.2.789l.46,2.285c.4,1.984.893,4.872,1.489,8.441,1.168,7.144,2.561,17.047,3.922,28.008s2.457,20.9,3.195,28.093c.347,3.562.629,6.463.831,8.53q.12,1.457.192,2.323A4.832,4.832,0,0,1,203.836,290.248Z" fill="#263238"/>
          </g>
        </g>
        <g id="Group_585" data-name="Group 585">
          <g id="Group_584" data-name="Group 584">
            <path id="Path_208" data-name="Path 208" d="M197.281,227.824c-.061.017-.134-.419.352-.8a1,1,0,0,1,1.04-.091,1.1,1.1,0,0,1,.6,1.149,1.057,1.057,0,0,1-1.008.829.87.87,0,0,1-.858-.627.813.813,0,0,1,.073-.679c.093-.137.185-.166.207-.143.057.043-.13.32.063.688a.484.484,0,0,0,.491.282.608.608,0,0,0,.52-.445.656.656,0,0,0-.316-.632.639.639,0,0,0-.621-.016C197.443,227.524,197.355,227.842,197.281,227.824Z" fill="#263238"/>
          </g>
        </g>
        <g id="Group_587" data-name="Group 587">
          <g id="Group_586" data-name="Group 586">
            <path id="Path_209" data-name="Path 209" d="M200.3,245.249c-.062.017-.135-.419.351-.8a1,1,0,0,1,1.04-.091,1.1,1.1,0,0,1,.6,1.149,1.056,1.056,0,0,1-1.008.829.87.87,0,0,1-.858-.627.816.816,0,0,1,.073-.679c.094-.137.185-.166.207-.143.057.043-.129.32.063.688a.485.485,0,0,0,.492.282.606.606,0,0,0,.519-.445.652.652,0,0,0-.316-.632.639.639,0,0,0-.621-.016C200.464,244.949,200.377,245.267,200.3,245.249Z" fill="#263238"/>
          </g>
        </g>
      </g>
      <g id="Group_659" data-name="Group 659">
        <g id="Group_657" data-name="Group 657">
          <g id="Group_656" data-name="Group 656">
            <g id="Group_592" data-name="Group 592">
              <g id="Group_591" data-name="Group 591">
                <g id="Group_590" data-name="Group 590">
                  <g id="Group_589" data-name="Group 589">
                    <path id="Path_210" data-name="Path 210" d="M192.653,456.176l-.2-8.908-16.688.273.159,13.035,1.035.05c4.61.18,23.448.592,26.511-.392C206.884,459.137,192.653,456.176,192.653,456.176Z" fill="#5279f7"/>
                  </g>
                </g>
              </g>
            </g>
            <g id="Group_595" data-name="Group 595" opacity="0.4">
              <g id="Group_594" data-name="Group 594">
                <g id="Group_593" data-name="Group 593">
                  <path id="Path_211" data-name="Path 211" d="M199.61,457.87s4.993,1.352,4.386,2.18-19.659,1.129-28.075.526l.02-.373,22.228-.161S198.639,457.926,199.61,457.87Z" fill="#fff"/>
                </g>
              </g>
            </g>
            <g id="Group_599" data-name="Group 599">
              <g id="Group_598" data-name="Group 598">
                <g id="Group_597" data-name="Group 597">
                  <g id="Group_596" data-name="Group 596">
                    <path id="Path_212" data-name="Path 212" d="M175.679,460.2a1.509,1.509,0,0,0,.287.026l.825.037,3.035.083c2.564.052,6.106.076,10.017.018s7.453-.19,10.014-.319l3.031-.173.823-.062a.144.144,0,1,0,0-.041l-.825.024-3.033.109c-2.561.093-6.1.2-10.011.26s-7.449.056-10.012.041l-3.035-.019-.826,0A1.5,1.5,0,0,0,175.679,460.2Z" fill="#263238"/>
                  </g>
                </g>
              </g>
            </g>
            <g id="Group_603" data-name="Group 603">
              <g id="Group_602" data-name="Group 602">
                <g id="Group_601" data-name="Group 601">
                  <g id="Group_600" data-name="Group 600">
                    <path id="Path_213" data-name="Path 213" d="M198.168,460.3a6.851,6.851,0,0,1,.544-1.456,6.78,6.78,0,0,1,1.016-1.178,2.7,2.7,0,0,0-1.56,2.634Z" fill="#263238"/>
                  </g>
                </g>
              </g>
            </g>
            <g id="Group_607" data-name="Group 607">
              <g id="Group_606" data-name="Group 606">
                <g id="Group_605" data-name="Group 605">
                  <g id="Group_604" data-name="Group 604">
                    <path id="Path_214" data-name="Path 214" d="M193.205,457.881c.048.029.279-.261.516-.649s.391-.725.344-.754-.279.261-.516.649S193.157,457.852,193.205,457.881Z" fill="#263238"/>
                  </g>
                </g>
              </g>
            </g>
            <g id="Group_611" data-name="Group 611">
              <g id="Group_610" data-name="Group 610">
                <g id="Group_609" data-name="Group 609">
                  <g id="Group_608" data-name="Group 608">
                    <path id="Path_215" data-name="Path 215" d="M191.843,457.188c.038.041.3-.139.582-.4s.482-.509.444-.55-.3.139-.582.4S191.8,457.147,191.843,457.188Z" fill="#263238"/>
                  </g>
                </g>
              </g>
            </g>
            <g id="Group_615" data-name="Group 615">
              <g id="Group_614" data-name="Group 614">
                <g id="Group_613" data-name="Group 613">
                  <g id="Group_612" data-name="Group 612">
                    <path id="Path_216" data-name="Path 216" d="M190.964,455.626a3.811,3.811,0,0,0,1.743-.008,1.981,1.981,0,0,0-.872-.1A1.959,1.959,0,0,0,190.964,455.626Z" fill="#263238"/>
                  </g>
                </g>
              </g>
            </g>
            <g id="Group_619" data-name="Group 619">
              <g id="Group_618" data-name="Group 618">
                <g id="Group_617" data-name="Group 617">
                  <g id="Group_616" data-name="Group 616">
                    <path id="Path_217" data-name="Path 217" d="M190.653,454.52a2.457,2.457,0,0,0,1.977.118,81.509,81.509,0,0,1-1.977-.118Z" fill="#263238"/>
                  </g>
                </g>
              </g>
            </g>
            <g id="Group_623" data-name="Group 623">
              <g id="Group_622" data-name="Group 622">
                <g id="Group_621" data-name="Group 621">
                  <g id="Group_620" data-name="Group 620">
                    <path id="Path_218" data-name="Path 218" d="M193.748,456.416a3.065,3.065,0,0,0,1.073-.024,6.222,6.222,0,0,0,1.137-.269,3.1,3.1,0,0,0,.649-.28.577.577,0,0,0,.261-.337.423.423,0,0,0-.17-.426,1.967,1.967,0,0,0-2.423.614,1.915,1.915,0,0,0-.338.721.592.592,0,0,0-.023.29,3.027,3.027,0,0,1,.474-.923,1.935,1.935,0,0,1,.906-.609,1.66,1.66,0,0,1,1.28.066c.172.124.109.325-.079.441a3.15,3.15,0,0,1-.6.267,7.4,7.4,0,0,1-1.1.305C194.156,456.376,193.747,456.383,193.748,456.416Z" fill="#263238"/>
                  </g>
                </g>
              </g>
            </g>
            <g id="Group_627" data-name="Group 627">
              <g id="Group_626" data-name="Group 626">
                <g id="Group_625" data-name="Group 625">
                  <g id="Group_624" data-name="Group 624">
                    <path id="Path_219" data-name="Path 219" d="M194.027,456.465a1.061,1.061,0,0,0,.112-.746,1.758,1.758,0,0,0-.305-.779,1.078,1.078,0,0,0-.9-.533.428.428,0,0,0-.323.5,1.188,1.188,0,0,0,.19.476,3.3,3.3,0,0,0,.517.641,1.542,1.542,0,0,0,.621.424c.018-.026-.217-.189-.518-.524a3.7,3.7,0,0,1-.459-.636c-.151-.225-.258-.63.01-.683.268-.03.546.233.713.444a1.761,1.761,0,0,1,.315.692A3.915,3.915,0,0,1,194.027,456.465Z" fill="#263238"/>
                  </g>
                </g>
              </g>
            </g>
            <g id="Group_631" data-name="Group 631">
              <g id="Group_630" data-name="Group 630">
                <g id="Group_629" data-name="Group 629">
                  <g id="Group_628" data-name="Group 628">
                    <path id="Path_220" data-name="Path 220" d="M175.948,455.625c0,.038.477-.053,1.233.024a5.234,5.234,0,0,1,4.426,3.415c.266.712.3,1.192.335,1.187a.937.937,0,0,0,0-.337,4.437,4.437,0,0,0-.2-.9,5.071,5.071,0,0,0-4.549-3.51,4.371,4.371,0,0,0-.917.038A.981.981,0,0,0,175.948,455.625Z" fill="#263238"/>
                  </g>
                </g>
              </g>
            </g>
            <g id="Group_635" data-name="Group 635">
              <g id="Group_634" data-name="Group 634">
                <g id="Group_633" data-name="Group 633">
                  <g id="Group_632" data-name="Group 632">
                    <path id="Path_221" data-name="Path 221" d="M177.568,448.654a58.566,58.566,0,0,0,.021,6.859,57.993,57.993,0,0,0-.021-6.859Z" fill="#263238"/>
                  </g>
                </g>
              </g>
            </g>
            <g id="Group_639" data-name="Group 639">
              <g id="Group_638" data-name="Group 638">
                <g id="Group_637" data-name="Group 637">
                  <g id="Group_636" data-name="Group 636">
                    <path id="Path_222" data-name="Path 222" d="M184.044,458.686a13.685,13.685,0,0,0,4.877-.03c-.006-.059-1.1.025-2.439.031S184.049,458.628,184.044,458.686Z" fill="#263238"/>
                  </g>
                </g>
              </g>
            </g>
            <g id="Group_643" data-name="Group 643">
              <g id="Group_642" data-name="Group 642">
                <g id="Group_641" data-name="Group 641">
                  <g id="Group_640" data-name="Group 640">
                    <path id="Path_223" data-name="Path 223" d="M180.773,458.733c-.04.041.093.229.208.478s.179.469.237.464.082-.265-.054-.551S180.808,458.692,180.773,458.733Z" fill="#263238"/>
                  </g>
                </g>
              </g>
            </g>
            <g id="Group_647" data-name="Group 647">
              <g id="Group_646" data-name="Group 646">
                <g id="Group_645" data-name="Group 645">
                  <g id="Group_644" data-name="Group 644">
                    <path id="Path_224" data-name="Path 224" d="M179.516,457.218c-.039.04.071.212.247.384s.349.28.388.24-.071-.212-.247-.384S179.555,457.178,179.516,457.218Z" fill="#263238"/>
                  </g>
                </g>
              </g>
            </g>
            <g id="Group_651" data-name="Group 651">
              <g id="Group_650" data-name="Group 650">
                <g id="Group_649" data-name="Group 649">
                  <g id="Group_648" data-name="Group 648">
                    <path id="Path_225" data-name="Path 225" d="M177.741,456.545c.013.057.235.051.481.134s.425.21.468.171-.1-.267-.406-.364S177.723,456.494,177.741,456.545Z" fill="#263238"/>
                  </g>
                </g>
              </g>
            </g>
            <g id="Group_655" data-name="Group 655">
              <g id="Group_654" data-name="Group 654">
                <g id="Group_653" data-name="Group 653">
                  <g id="Group_652" data-name="Group 652">
                    <path id="Path_226" data-name="Path 226" d="M176.48,456.234c-.019.053.078.137.218.188s.268.051.287,0-.078-.137-.217-.188S176.5,456.182,176.48,456.234Z" fill="#263238"/>
                  </g>
                </g>
              </g>
            </g>
          </g>
        </g>
        <g id="Group_658" data-name="Group 658" opacity="0.3">
          <path id="Path_227" data-name="Path 227" d="M175.963,455.178l16.667-.54-.058-2.009-16.758,1.495Z"/>
        </g>
      </g>
      <g id="Group_730" data-name="Group 730">
        <g id="Group_728" data-name="Group 728">
          <g id="Group_727" data-name="Group 727">
            <g id="Group_663" data-name="Group 663">
              <g id="Group_662" data-name="Group 662">
                <g id="Group_661" data-name="Group 661">
                  <g id="Group_660" data-name="Group 660">
                    <path id="Path_228" data-name="Path 228" d="M231.343,456.349l-.248-8.907-16.686.36.226,13.034,1.036.044c4.609.156,23.45.47,26.508-.529C245.59,459.236,231.343,456.349,231.343,456.349Z" fill="#5279f7"/>
                  </g>
                </g>
              </g>
            </g>
            <g id="Group_666" data-name="Group 666" opacity="0.4">
              <g id="Group_665" data-name="Group 665">
                <g id="Group_664" data-name="Group 664">
                  <path id="Path_229" data-name="Path 229" d="M238.31,458.006s5,1.327,4.4,2.159-19.654,1.23-28.072.671l.018-.374,22.226-.276S237.339,458.068,238.31,458.006Z" fill="#fff"/>
                </g>
              </g>
            </g>
            <g id="Group_670" data-name="Group 670">
              <g id="Group_669" data-name="Group 669">
                <g id="Group_668" data-name="Group 668">
                  <g id="Group_667" data-name="Group 667">
                    <path id="Path_230" data-name="Path 230" d="M214.391,460.457a1.483,1.483,0,0,0,.288.025l.824.033,3.036.067c2.563.038,6.106.045,10.017-.034s7.452-.228,10.012-.37l3.03-.19.823-.065a1.6,1.6,0,0,0,.286-.037,1.567,1.567,0,0,0-.289,0l-.825.028-3.032.125c-2.561.105-6.1.231-10.009.311s-7.449.1-10.012.093l-3.035,0-.826.006A1.53,1.53,0,0,0,214.391,460.457Z" fill="#263238"/>
                  </g>
                </g>
              </g>
            </g>
            <g id="Group_674" data-name="Group 674">
              <g id="Group_673" data-name="Group 673">
                <g id="Group_672" data-name="Group 672">
                  <g id="Group_671" data-name="Group 671">
                    <path id="Path_231" data-name="Path 231" d="M236.88,460.446a4.414,4.414,0,0,1,1.546-2.642,2.7,2.7,0,0,0-1.546,2.642Z" fill="#263238"/>
                  </g>
                </g>
              </g>
            </g>
            <g id="Group_678" data-name="Group 678">
              <g id="Group_677" data-name="Group 677">
                <g id="Group_676" data-name="Group 676">
                  <g id="Group_675" data-name="Group 675">
                    <path id="Path_232" data-name="Path 232" d="M231.9,458.051c.048.029.277-.263.512-.651s.388-.727.34-.756-.277.262-.513.651S231.857,458.022,231.9,458.051Z" fill="#263238"/>
                  </g>
                </g>
              </g>
            </g>
            <g id="Group_682" data-name="Group 682">
              <g id="Group_681" data-name="Group 681">
                <g id="Group_680" data-name="Group 680">
                  <g id="Group_679" data-name="Group 679">
                    <path id="Path_233" data-name="Path 233" d="M230.539,457.365c.038.04.3-.141.58-.4s.479-.512.441-.552-.3.14-.58.4S230.5,457.324,230.539,457.365Z" fill="#263238"/>
                  </g>
                </g>
              </g>
            </g>
            <g id="Group_686" data-name="Group 686">
              <g id="Group_685" data-name="Group 685">
                <g id="Group_684" data-name="Group 684">
                  <g id="Group_683" data-name="Group 683">
                    <path id="Path_234" data-name="Path 234" d="M229.652,455.808a3.793,3.793,0,1,0,.871-.11A1.959,1.959,0,0,0,229.652,455.808Z" fill="#263238"/>
                  </g>
                </g>
              </g>
            </g>
            <g id="Group_690" data-name="Group 690">
              <g id="Group_689" data-name="Group 689">
                <g id="Group_688" data-name="Group 688">
                  <g id="Group_687" data-name="Group 687">
                    <path id="Path_235" data-name="Path 235" d="M229.335,454.7a2.448,2.448,0,0,0,1.978.108,70.144,70.144,0,0,1-1.978-.108Z" fill="#263238"/>
                  </g>
                </g>
              </g>
            </g>
            <g id="Group_694" data-name="Group 694">
              <g id="Group_693" data-name="Group 693">
                <g id="Group_692" data-name="Group 692">
                  <g id="Group_691" data-name="Group 691">
                    <path id="Path_236" data-name="Path 236" d="M232.44,456.583a3.07,3.07,0,0,0,1.073-.029,6.275,6.275,0,0,0,1.136-.275A3.107,3.107,0,0,0,235.3,456a.578.578,0,0,0,.259-.339.421.421,0,0,0-.172-.425,1.965,1.965,0,0,0-2.419.626,1.919,1.919,0,0,0-.335.723.6.6,0,0,0-.022.29,3.026,3.026,0,0,1,.47-.925,1.926,1.926,0,0,1,.9-.614,1.664,1.664,0,0,1,1.28.06c.173.122.111.324-.076.441a3.263,3.263,0,0,1-.6.27,7.331,7.331,0,0,1-1.1.31C232.848,456.541,232.439,456.55,232.44,456.583Z" fill="#263238"/>
                  </g>
                </g>
              </g>
            </g>
            <g id="Group_698" data-name="Group 698">
              <g id="Group_697" data-name="Group 697">
                <g id="Group_696" data-name="Group 696">
                  <g id="Group_695" data-name="Group 695">
                    <path id="Path_237" data-name="Path 237" d="M232.719,456.631a1.055,1.055,0,0,0,.108-.747,1.77,1.77,0,0,0-.309-.778,1.078,1.078,0,0,0-.9-.528.427.427,0,0,0-.32.5,1.17,1.17,0,0,0,.192.475,3.273,3.273,0,0,0,.52.638,1.549,1.549,0,0,0,.623.421c.018-.026-.218-.188-.521-.521a3.831,3.831,0,0,1-.462-.634c-.152-.224-.261-.628.007-.683.267-.031.547.23.715.441a1.742,1.742,0,0,1,.318.69A3.959,3.959,0,0,1,232.719,456.631Z" fill="#263238"/>
                  </g>
                </g>
              </g>
            </g>
            <g id="Group_702" data-name="Group 702">
              <g id="Group_701" data-name="Group 701">
                <g id="Group_700" data-name="Group 700">
                  <g id="Group_699" data-name="Group 699">
                    <path id="Path_238" data-name="Path 238" d="M214.636,455.885c.005.037.477-.056,1.233.017a5.229,5.229,0,0,1,4.444,3.392c.269.71.3,1.191.341,1.185a.945.945,0,0,0-.006-.337,4.422,4.422,0,0,0-.2-.9,5.071,5.071,0,0,0-4.567-3.486,4.38,4.38,0,0,0-.917.042A.93.93,0,0,0,214.636,455.885Z" fill="#263238"/>
                  </g>
                </g>
              </g>
            </g>
            <g id="Group_706" data-name="Group 706">
              <g id="Group_705" data-name="Group 705">
                <g id="Group_704" data-name="Group 704">
                  <g id="Group_703" data-name="Group 703">
                    <path id="Path_239" data-name="Path 239" d="M216.22,448.9a58,58,0,0,0,.057,6.859,57.983,57.983,0,0,0-.057-6.859Z" fill="#263238"/>
                  </g>
                </g>
              </g>
            </g>
            <g id="Group_710" data-name="Group 710">
              <g id="Group_709" data-name="Group 709">
                <g id="Group_708" data-name="Group 708">
                  <g id="Group_707" data-name="Group 707">
                    <path id="Path_240" data-name="Path 240" d="M222.748,458.9a13.718,13.718,0,0,0,4.877-.055c-.007-.059-1.1.031-2.439.044S222.753,458.845,222.748,458.9Z" fill="#263238"/>
                  </g>
                </g>
              </g>
            </g>
            <g id="Group_714" data-name="Group 714">
              <g id="Group_713" data-name="Group 713">
                <g id="Group_712" data-name="Group 712">
                  <g id="Group_711" data-name="Group 711">
                    <path id="Path_241" data-name="Path 241" d="M219.477,458.967c-.04.041.094.229.21.477s.182.468.24.463.08-.266-.057-.551S219.512,458.926,219.477,458.967Z" fill="#263238"/>
                  </g>
                </g>
              </g>
            </g>
            <g id="Group_718" data-name="Group 718">
              <g id="Group_717" data-name="Group 717">
                <g id="Group_716" data-name="Group 716">
                  <g id="Group_715" data-name="Group 715">
                    <path id="Path_242" data-name="Path 242" d="M218.212,457.459c-.038.04.073.212.249.383s.351.278.39.238-.072-.212-.249-.383S218.251,457.419,218.212,457.459Z" fill="#263238"/>
                  </g>
                </g>
              </g>
            </g>
            <g id="Group_722" data-name="Group 722">
              <g id="Group_721" data-name="Group 721">
                <g id="Group_720" data-name="Group 720">
                  <g id="Group_719" data-name="Group 719">
                    <path id="Path_243" data-name="Path 243" d="M216.434,456.8c.013.057.235.05.482.131s.426.208.469.169-.1-.266-.408-.362S216.416,456.744,216.434,456.8Z" fill="#263238"/>
                  </g>
                </g>
              </g>
            </g>
            <g id="Group_726" data-name="Group 726">
              <g id="Group_725" data-name="Group 725">
                <g id="Group_724" data-name="Group 724">
                  <g id="Group_723" data-name="Group 723">
                    <path id="Path_244" data-name="Path 244" d="M215.172,456.491c-.019.052.078.136.218.186s.268.05.287,0-.078-.137-.218-.187S215.191,456.438,215.172,456.491Z" fill="#263238"/>
                  </g>
                </g>
              </g>
            </g>
          </g>
        </g>
        <g id="Group_729" data-name="Group 729" opacity="0.3">
          <path id="Path_245" data-name="Path 245" d="M214.649,455.437l16.664-.626-.069-2.009-16.75,1.581Z"/>
        </g>
      </g>
      <g id="Group_737" data-name="Group 737">
        <g id="Group_732" data-name="Group 732">
          <g id="Group_731" data-name="Group 731">
            <path id="Path_246" data-name="Path 246" d="M172.689,285.168V453.9h26.3l2.328-146.35,9.225,146.35h26.3L225.082,288.019Z" fill="#202b4c"/>
          </g>
        </g>
        <g id="Group_734" data-name="Group 734">
          <g id="Group_733" data-name="Group 733">
            <path id="Path_247" data-name="Path 247" d="M203.557,286.433a14.568,14.568,0,0,1,.221,2.715c.072,1.678.136,4,.176,6.557.013,1.274.024,2.487.035,3.613a6.463,6.463,0,0,1-.546,2.961,3.454,3.454,0,0,1-1.495,1.528,1.489,1.489,0,0,1-.795.219c-.013-.038.274-.1.69-.368a3.464,3.464,0,0,0,1.273-1.506,6.566,6.566,0,0,0,.409-2.832c-.024-1.125-.048-2.337-.075-3.609-.04-2.561-.048-4.88-.028-6.559A14.647,14.647,0,0,1,203.557,286.433Z" fill="#455a64"/>
          </g>
        </g>
        <g id="Group_736" data-name="Group 736">
          <g id="Group_735" data-name="Group 735">
            <path id="Path_248" data-name="Path 248" d="M198.838,288.345c.047.054-.352.264-.363.81a.854.854,0,0,0,.376.755,1.015,1.015,0,0,0,1.055-.069.685.685,0,0,0,.058-1.19,1.192,1.192,0,0,0-1.061-.227l-.015-.177c.217.1.326.168.313.2s-.147.026-.385-.018l-.211-.039.2-.139a1.368,1.368,0,0,1,1.429.1,1.148,1.148,0,0,1,.537.856,1.119,1.119,0,0,1-.567.995,1.494,1.494,0,0,1-1.63.035,1.115,1.115,0,0,1-.451-1.117,1.051,1.051,0,0,1,.417-.684C198.707,288.33,198.826,288.322,198.838,288.345Z" fill="#455a64"/>
          </g>
        </g>
      </g>
      <g id="Group_738" data-name="Group 738">
        <path id="Path_249" data-name="Path 249" d="M217.488,255.445c-.692-.9-9,.53-9,.53l3.031-2.3c-1.543-2.74-6.882.575-8.58,2.179a3.123,3.123,0,0,0-.841,1.651l-33.517,7.072-18.711-1.907s-.374,3.228-1.314,9.317c-.887,5.754,8.579,11.4,14.443,10.573,5.362-.754,38.122-10.069,43.7-11.66h0l.811-.232-.014-.037c1.808-.621,6.126-2.168,6.578-2.949.572-.99.416-8.751.416-8.751l3.078-1.356A2.2,2.2,0,0,0,217.488,255.445Z" fill="#ffbe9d"/>
      </g>
    </g>
  </g>
</svg>
