<svg xmlns="http://www.w3.org/2000/svg" width="253.302" height="583.122" viewBox="0 0 253.302 583.122"><g id="Group_286" data-name="Group 286" transform="translate(-1146.637 -310.882)"><path id="Path_452" data-name="Path 452" d="M1272.241,879.861V891.61a2.394,2.394,0,0,0,2.394,2.394h59.988a2.383,2.383,0,0,0,2.3-3.1c-1.68-5.1-7.04-14.548-23.527-12.813,0,0-4.714,8.447-20.232,5.3S1272.732,877.308,1272.241,879.861Z" fill="#5279f7"></path><path id="Path_454" data-name="Path 454" d="M1148.844,893.942h44.977a2.2,2.2,0,0,0,2.2-2.2V881.2a.651.651,0,0,0-1.095-.458c-12.983,10.969-21.05-7.749-32.987-5.82-9.011,1.463-13.464,11.13-15.178,16.093A2.2,2.2,0,0,0,1148.844,893.942Z" fill="#5279f7"></path><path id="Path_458" data-name="Path 458" d="M1307.971,454.221a151.771,151.771,0,0,0,5.87,18.855c3.448,8.806,8.144,17.537,13.647,17.977,18.563,1.394,50.519-40.745,50.519-40.745l-9.171-13.206-33.713,28.636s-13.885-68.035-23.35-67.817a4.141,4.141,0,0,0-1.32.219c-.808.222.307,1.275-.281,1.935-2.494,2.421-3.815,7.7-4.329,14.015C1304.376,430.523,1307.971,454.221,1307.971,454.221Z" fill="#5279f7"></path><path id="Path_459" data-name="Path 459" d="M1308.661,412.376c1.08-3.641,2.218-7.281,3.355-10.863.058-.187.115-.365.173-.547h1.725a27.193,27.193,0,0,1,4.3,10.613,82.472,82.472,0,0,1,.91,13.534,132.87,132.87,0,0,1-.682,19.622,54.993,54.993,0,0,1-1.934,9.1,34.779,34.779,0,0,1-1.649,4.266,117.6,117.6,0,0,1-4.55-14.615S1307.524,425.113,1308.661,412.376Z" fill="#5279f7"></path><path id="Path_480" data-name="Path 480" d="M1360.727,481.993l-36.542-1.165a2.424,2.424,0,0,1-2.075-3.54l37.477-72.244a2.424,2.424,0,0,1,2.34-1.3l35.774,2.79a2.424,2.424,0,0,1,1.963,3.535l-36.709,70.62A2.425,2.425,0,0,1,1360.727,481.993Z" fill="#4a4f72"></path><path id="Path_481" data-name="Path 481" d="M1365.838,447.671c-1.7,5.062,3.675,11.443,12.029,14.252s14.52-15.533,6.167-18.342S1367.541,442.608,1365.838,447.671Z" fill="#fcb3b3"></path><g id="Group_285" data-name="Group 285"><path id="Path_451" data-name="Path 451" d="M1278.46,833.143h17.6c1.787,20.268,6.931,43.882,18.931,45.218,4.4,4.318-38.865,20.3-41.629,3.812C1271.025,868.256,1281.163,872.177,1278.46,833.143Z" fill="#fcb3b3"></path><path id="Path_453" data-name="Path 453" d="M1190.434,835.352l-13.7-.187c-3.63,20.02-9.728,44.437-21.8,44.671-4.779,3.9,35.747,21.992,40.005,5.83C1198.538,872.02,1184.176,873.975,1190.434,835.352Z" fill="#fcb3b3"></path><g id="Group_133" data-name="Group 133"><path id="Path_455" data-name="Path 455" d="M1219.587,700.476a8.926,8.926,0,1,1,8.926-8.926A8.937,8.937,0,0,1,1219.587,700.476Zm0-16.216a7.29,7.29,0,1,0,7.29,7.29A7.3,7.3,0,0,0,1219.587,684.26Z" fill="#fff"></path></g><g id="Group_134" data-name="Group 134"><path id="Path_456" data-name="Path 456" d="M1291.763,700.476a8.926,8.926,0,1,1,8.926-8.926A8.937,8.937,0,0,1,1291.763,700.476Zm0-16.216a7.29,7.29,0,1,0,7.29,7.29A7.3,7.3,0,0,0,1291.763,684.26Z" fill="#fff"></path></g><path id="Path_457" data-name="Path 457" d="M1228.8,451.932c4.7-12.733,1.448-27.878-.228-41.938-2.042-17.2-1.4-36.38.509-53.582l59.413,1.889c2.077,7.361,4.452,14.626,6.675,21.833,5.957,19.3,10.987,40.87,6.3,60.8a60.353,60.353,0,0,1-20.006,32.616c-9.094,7.53-19.574,11.51-30.091,13.8-6.211,1.361-12.791,2.119-18.621-1.085-5.844-3.222-10.581-11.561-9.374-19.936C1224.149,461.012,1227.02,456.791,1228.8,451.932Z" fill="#202b4c"></path><path id="Path_460" data-name="Path 460" d="M1299.273,373.038c-1.214,13.518-8.34,25.789-16.454,36.669-2.024,2.713-4.192,5.437-7.116,7.143s-6.792,2.2-9.641.368c-2.058-1.321-3.27-3.593-4.394-5.765l-18.457-35.687c-2.868-5.544-5.8-11.294-6.184-17.524-.4-6.349,1.884-12.536,4.335-18.406,1.753-4.2,3.743-8.52,7.319-11.328,3.472-2.725,7.994-3.664,12.367-4.263a50.5,50.5,0,0,1,15.035-.2,26.237,26.237,0,0,1,9.889,3.656c3.23,2.07,3.883,4.435,5.289,7.9,3.1,7.633,5.971,15.447,7.357,23.6A53.981,53.981,0,0,1,1299.273,373.038Z" fill="#202b4c"></path><path id="Path_461" data-name="Path 461" d="M1170.472,840.377l20.521,5s36.683-118.388,38.337-138.927c1.241-15.18,22.175-75.691,33.1-106.4,3.86-10.924,6.479-18.091,6.479-18.091s10.458,110.048,2.67,143.94,3.877,114.476,3.877,114.476h25.018s-13.87-73.366,15.007-185.051c22.71-87.8,2.482-139.546-7.219-157.672-.5-.913-.965-1.74-1.4-2.5a47.859,47.859,0,0,0-3.1-4.876h-63.855s-.947,1.672-2.688,5.014c-.43.828-.895,1.775-1.43,2.809-4.031,7.977-10.82,22.055-19.211,42.231-10.511,25.19-15.283,109.7-16.989,149.505a129.225,129.225,0,0,1-7.116,35.89C1178.536,765.944,1170.472,840.377,1170.472,840.377Z" fill="#202b4c"></path><path id="Path_462" data-name="Path 462" d="M1237.221,495.293l.4.1a142.976,142.976,0,0,0,37.475,5.41c17.92,0,28.585-4.187,31.772-5.652a47.859,47.859,0,0,0-3.1-4.876h-63.855S1238.962,491.951,1237.221,495.293Z" fill="#212785"></path><rect id="Rectangle_37" data-name="Rectangle 37" width="2.249" height="13.086" transform="matrix(-0.992, 0.126, -0.126, -0.992, 1291.382, 504.262)" fill="#6870f2"></rect><rect id="Rectangle_38" data-name="Rectangle 38" width="2.249" height="13.086" transform="translate(1261.65 504.535) rotate(-166.163)" fill="#6870f2"></rect><path id="Path_463" data-name="Path 463" d="M1270.242,495.605l.028,4.161a2.356,2.356,0,0,0,2.357,2.305l3.92-.042.221,16.268.8-.025-.2-16.25,3.247-.045a2.317,2.317,0,0,0,2.3-2.339l-.045-4.162a2.339,2.339,0,0,0-2.341-2.3l-7.994.091A2.3,2.3,0,0,0,1270.242,495.605Zm.811-.006a1.5,1.5,0,0,1,1.482-1.523l7.995-.092a1.517,1.517,0,0,1,1.522,1.5l.046,4.161a1.52,1.52,0,0,1-1.5,1.523l-7.977.092a1.508,1.508,0,0,1-1.522-1.5Z" fill="#fff"></path><path id="Path_464" data-name="Path 464" d="M1177.571,842.025c1.022-8.2,10.33-81.087,22.449-116.061a130.163,130.163,0,0,0,7.147-36.088c1.561-36.416,6.331-123.852,16.95-149.269,13.7-32.952,23.181-49.8,23.276-49.971l-1.233-.7c-.1.167-9.625,17.083-23.354,50.125-10.707,25.625-15.495,113.261-17.061,149.751a128.545,128.545,0,0,1-7.069,35.688c-12.163,35.11-21.493,108.138-22.515,116.35Z" fill="#202b4c"></path><path id="Path_465" data-name="Path 465" d="M1229.08,426.365v.625a111.585,111.585,0,0,0,2.047,23.2c.171.852.4,1.7.626,2.443.114.514.284.969.4,1.481.284.8.512,1.535.8,2.218a12.259,12.259,0,0,0,.91,1.933,9.749,9.749,0,0,0,1.194,1.991c8.19,10.977,4.834,30.026,4.834,30.026,41.971,11.488,62.5,0,62.5,0-.512-1.08.17-10.463.739-17.516a12.076,12.076,0,0,1,4.948-9.269c5.4-3.527,7.222-13.935,7.791-21.213.4-4.379.341-7.678.341-7.678s4.208-30.14-3.071-34.688c-1.592-.97-6.2-1.594-12.4-1.936-15.412-.739-40.89.4-56.132,2.616-6.938.969-11.715,2.218-12.625,3.585C1230.388,406.689,1229.194,415.9,1229.08,426.365Z" fill="#5279f7"></path><path id="Path_466" data-name="Path 466" d="M1229.08,426.365v.625a111.585,111.585,0,0,0,2.047,23.2c.171.852.4,1.7.626,2.443.114.514.284.969.4,1.481.284.8.512,1.535.8,2.218a12.259,12.259,0,0,0,.91,1.933,9.749,9.749,0,0,0,1.194,1.991c8.19,10.977,4.834,30.026,4.834,30.026,41.971,11.488,63.881,0,63.881,0-.512-1.081-1.21-10.461-.641-17.514a12.076,12.076,0,0,1,4.948-9.269c5.4-3.527,7.222-13.935,7.791-21.213-2.275,3.7-4.322,7.336-8.189,10.122a27.147,27.147,0,0,1-20.189,4.665c-2.9-.456-5.744-1.422-8.645-1.308-4.947.169-9.27,3.3-14.16,3.868-6.142.739-12.171-2.674-16.208-7.281-4.038-4.662-6.483-10.463-8.986-16.094-1.763-4.038-4.379-8.645-8.587-9.214A7.094,7.094,0,0,0,1229.08,426.365Z" fill="#5279f7"></path><path id="Path_467" data-name="Path 467" d="M1258.306,399.11c0-.129-.007-.264-.01-.394,16.41-.376,37.091-1.005,42.441-.73-.388,12.911-6.651,28.381-21.721,28.381-14.387,0-31.737-13.37-34.408-25.758C1248.588,400.023,1253.275,399.524,1258.306,399.11Z" fill="#fcb3b3"></path><path id="Path_468" data-name="Path 468" d="M1244.66,400.781c2.774,12.337,20.038,25.586,34.356,25.586,15.352,0,21.555-15.3,21.727-28.377-.482-.017-.981-.035-1.481-.069-1.189,12.1-7.6,24.691-21.521,24.691C1264.871,422.612,1249.622,411.912,1244.66,400.781Z" fill="#fc8e8e"></path><path id="Path_469" data-name="Path 469" d="M1271.582,725.9c-7.791,33.894,3.867,114.479,3.867,114.479h2.616a1596.724,1596.724,0,0,0,6.54-297.658c-14.275,15.184-19.279,36.283-22.179,57.326,3.867-10.921,6.483-18.086,6.483-18.086S1279.373,692.005,1271.582,725.9Z" fill="#202b4c"></path><path id="Path_470" data-name="Path 470" d="M1240.439,370.742a15.355,15.355,0,0,0,3.183,3.591,33.072,33.072,0,0,1,3.375,2.542,11.567,11.567,0,0,1,4.1,8.863v15.655c0,7.842,5.91,14.7,13.735,15.214a14.72,14.72,0,0,0,15.714-14.681v-9a.159.159,0,0,1,.082-.02,19.448,19.448,0,0,0,13.021-18.367V354.211a19.47,19.47,0,0,0-19.47-19.47H1270.5a19.49,19.49,0,0,0-19.491,19.49v10.735a6.912,6.912,0,0,0-2.163-3.326,6.227,6.227,0,0,0-8.245.714A6.693,6.693,0,0,0,1240.439,370.742Z" fill="#fcb3b3"></path><path id="Path_471" data-name="Path 471" d="M1264.031,389.824a16.155,16.155,0,0,0,12.164,9.694,16.439,16.439,0,0,0,4.346.163v-6.756a22.211,22.211,0,0,1-2.653.389A21.729,21.729,0,0,1,1264.031,389.824Z" fill="#fc8e8e"></path><path id="Path_472" data-name="Path 472" d="M1236.352,385.395c7.15,10.527,7.994,28.464,7.994,28.464s7,0,12-9.445a14.9,14.9,0,0,0,1.652-7.108l0-.3a14.977,14.977,0,0,0-2.723-8.558,84.613,84.613,0,0,1-6.2-10.449,37.875,37.875,0,0,0-3.066-4.994,29.755,29.755,0,0,1-4.364-23.711c-.568-2.62-.517-4.307.483-4.307a1.814,1.814,0,0,0,1.137-.6,26.216,26.216,0,0,1,3.153-5.427,116.12,116.12,0,0,0,4.325-13.44l8.288,4.893c2.429-.689,27.86,5.411,31.548,13.957a25.174,25.174,0,0,1,4.859,7.546l2.171,1.292c.93-15.782-6.858-29.859-11.941-35.218-5.065-5.341-33.685-14.938-48.072,4.67C1223.2,342.234,1229.253,374.833,1236.352,385.395Z" fill="#202b4c"></path><path id="Path_473" data-name="Path 473" d="M1251.167,331.706a40.144,40.144,0,0,0,3.731,3.808c4.435,3.424,9.917,5.1,15.261,6.78s10.8,3.529,15.077,7.2a24.655,24.655,0,0,1,8.028,18.749,33.257,33.257,0,0,1-7.035,19.491c-4.19,5.617-10.076,10.532-11.33,17.407a14.483,14.483,0,0,0,18.48,16.456,9.511,9.511,0,0,1-5.033-10.65c.68-2.767,2.63-5.049,4.3-7.385a52.972,52.972,0,0,0,6.132-50.3c-2.307-5.613-5.706-10.959-10.634-14.529-6.153-4.506-14-5.81-21.418-7.519a47.927,47.927,0,0,1-13.434-4.942,7.029,7.029,0,0,1-.823-.509c-.285-.158-.537-.351-.788-.511-.143-.1-.288-.226-.432-.323a11.419,11.419,0,0,1-3.3-4.141S1247.725,328.125,1251.167,331.706Z" fill="#202b4c"></path><path id="Path_474" data-name="Path 474" d="M1269.586,383.45a9.086,9.086,0,0,0,2.975-.552,1.029,1.029,0,0,0-.689-1.94,6.385,6.385,0,0,1-7.794-2.861,1.029,1.029,0,0,0-1.8.993A8.549,8.549,0,0,0,1269.586,383.45Z" fill="#fff"></path><path id="Path_475" data-name="Path 475" d="M1267.195,355.2a11.281,11.281,0,0,1-8.276,1.01c-.565-.159-.618-.636-.106-.936a11.34,11.34,0,0,1,8.258-1.009C1267.636,354.419,1267.706,354.895,1267.195,355.2Z" fill="#121c7c"></path><path id="Path_476" data-name="Path 476" d="M1287.756,356.313a11.274,11.274,0,0,1-8.246-1.227c-.5-.3-.427-.777.146-.93a11.344,11.344,0,0,1,8.229,1.223C1288.388,355.682,1288.329,356.16,1287.756,356.313Z" fill="#121c7c"></path><path id="Path_477" data-name="Path 477" d="M1284.417,364.1a1.956,1.956,0,1,1-2.1-1.795A1.955,1.955,0,0,1,1284.417,364.1Z" fill="#121c7c"></path><path id="Path_478" data-name="Path 478" d="M1265.983,364.11a1.956,1.956,0,1,1-2.1-1.795A1.956,1.956,0,0,1,1265.983,364.11Z" fill="#121c7c"></path><path id="Path_479" data-name="Path 479" d="M1270.207,374.967l5.075.085a1.139,1.139,0,0,0,1.139-1.371l-2.811-7.111a1.036,1.036,0,0,0-1.98-.025l-2.514,7.013A1.14,1.14,0,0,0,1270.207,374.967Z" fill="#fc8e8e"></path><path id="Path_482" data-name="Path 482" d="M1307.548,545.462c.371.017.734.011,1.092.055a7.057,7.057,0,0,1,2.873,1.171,3.38,3.38,0,0,0,3.379-.079,1.214,1.214,0,0,0,.629-.817c.016-.229-.375-.53-.64-.727a7.988,7.988,0,0,1-1.538-1.053c-1.284-1.582-3.316-1.593-4.917-2.487-1.687-.942-3.592-1.019-5.426-1.363-1.079-.2-2.181-.294-3.277-.395a6.17,6.17,0,0,1-2.831-.942c-1.756-1.123-3.6-2.113-5.295-3.325-1.924-1.38-3.716-2.943-5.7-4.535l-11,7.693c.687.387,1.295.744,1.915,1.078,3.125,1.681,6.284,3.3,9.367,5.052a14.068,14.068,0,0,1,4.8,4.689c.858,1.322,1.559,2.755,2.505,4.007a31.816,31.816,0,0,0,2.923,3.095c.985.993,1.992,1.966,3.01,2.926s2.011,1.953,3.108,2.813a3.225,3.225,0,0,0,3.606.347c.455-.263,1.208-.05,1.819.007a10.171,10.171,0,0,1,1.347.282,1.2,1.2,0,0,0,1.334-.429,1,1,0,0,1,1.357-.348,4.906,4.906,0,0,0,3.855-.154,1.662,1.662,0,0,1,.758.008c.869.116,1.335-.394,1.089-1.241a3.548,3.548,0,0,0-2.145-2.209c-.176-.082-.4-.115-.523-.245-.939-1.014-1.907-2.007-2.763-3.089a8.852,8.852,0,0,1-.764-1.724c-.6-1.255-1.217-2.5-1.829-3.745Z" fill="#fcb3b3"></path><path id="Path_483" data-name="Path 483" d="M1218.718,415.138a12.088,12.088,0,0,0-.111,1.735l-4.471,66.938.023,0a10.606,10.606,0,0,0-.157,1.811,7.943,7.943,0,0,0,.041.928c.023,0,.023,0,.009.013a8.4,8.4,0,0,0,.181,1.334c.026.144.062.3.1.435a10.088,10.088,0,0,0,2.536,4.721,11.036,11.036,0,0,0,1.7,1.581c6.312,5.69,42,38.186,60.447,46.276l8.011-8.99c-3.813-4.4-27.448-31.279-50.328-49.26l8.164-64.7-.1,0a13.106,13.106,0,0,0-26.044-2.824Z" fill="#5279f7"></path></g></g></svg>