<svg xmlns="http://www.w3.org/2000/svg" xmlns:xlink="http://www.w3.org/1999/xlink" width="263.04" height="374.988" viewBox="0 0 263.04 374.988">
  <defs>
    <clipPath id="clip-path">
      <path id="Path_106" data-name="Path 106" d="M298.37,273.64,163.81,330.27l-13.87,5.84L123.8,274,63.1,129.77,211.53,67.3Z" fill="#fff" stroke="#263238" stroke-linecap="round" stroke-linejoin="round" stroke-width="1"/>
    </clipPath>
  </defs>
  <g id="Left_hand" data-name="Left hand" transform="translate(-35.83 -66.8)">
    <g id="Group_110" data-name="Group 110">
      <path id="Path_80" data-name="Path 80" d="M170.472,296.115s6.33,29.391-7.384,50.775-24.264,27.086-29.011,33.466-23.32,42.052-23.32,42.052l-21.7-64.27,21.7-79.51Z" fill="rgba(0,0,0,0.7)" opacity="0.2"/>
      <g id="Group_107" data-name="Group 107">
        <path id="Path_81" data-name="Path 81" d="M298.37,273.64,163.81,330.27l-13.87,5.84L123.8,274,63.1,129.77,211.53,67.3Z" fill="#fff"/>
        <g id="Group_106" data-name="Group 106" clip-path="url(#clip-path)">
          <path id="Path_82" data-name="Path 82" d="M173.18,94.145,109.108,121.11a2.363,2.363,0,1,0,1.833,4.355L175.013,98.5a2.363,2.363,0,1,0-1.833-4.356Z" fill="#263238"/>
          <path id="Path_83" data-name="Path 83" d="M160.929,109.836l-32.036,13.483a1.181,1.181,0,1,0,.916,2.177l32.036-13.482a1.181,1.181,0,0,0-.916-2.178Z" fill="#263238"/>
          <g id="Group_92" data-name="Group 92">
            <g id="Group_82" data-name="Group 82">
              <path id="Path_84" data-name="Path 84" d="M213.637,191.966s1.352,10.615-2.6,12.278c-3.608,1.518-8.361-4.177-12.509-2.431s-.876,16.793-4.878,18.477-8.824-4.5-12.275-3.045-1.365,9.193-4.923,10.691c-2.936,1.236-7.14-4.917-10.5-6.267a2.57,2.57,0,0,0-2-.1c-3.522,1.482-1.774,17.646-4.812,18.925a5.7,5.7,0,0,1-2.7.441,19.907,19.907,0,0,0-3.427-.323,4.428,4.428,0,0,0-1.282.327c-2.594,1.092-2.24,9.6-4.612,10.6s-4.712-.239-7.244.827-2.491,5.488-6.265,7.076l1.6,3.794,92.108-38.763" fill="#bfbfbf" stroke="#263238" stroke-miterlimit="10" stroke-width="1"/>
              <path id="Path_85" data-name="Path 85" d="M116.56,218.921l18.648,44.311,96.438-40.586" fill="none" stroke="#263238" stroke-linecap="round" stroke-linejoin="round" stroke-width="1"/>
              <path id="Path_86" data-name="Path 86" d="M221.048,209.575a15.7,15.7,0,0,0-1.137-1.222c-1.191-1.15-3.084-2.612-4.52-2.007-1.405.591-1.53,2.927-1.5,5.422.033,3.036.3,6.3-1.229,6.947-1.3.546-2.465-.275-3.659-1.172-1.367-1.022-2.773-2.139-4.456-1.43-2.844,1.2-1.977,4.9-2.979,8.07a6.133,6.133,0,0,1-3.741,4.041c-2.456,1.034-4.948.019-7.293-1.583-3.962-2.7-7.52-7.076-9.825-6.107-3.667,1.544.378,11.469-3.565,13.129-2.2.927-6.763-6.022-11.192-11.994-3.5-4.728-6.924-8.844-9.026-7.96-4.756,2,3.081,25.731-.376,27.186-.034.014-.071.029-.106.04a3.649,3.649,0,0,1-3.427-.323c-1.247-.706-2.26-1.707-3.638-1.127-2.546,1.071-1.052,10.374-3.86,11.556s-4.49-.528-7.649.8c-2.673,1.125-4.256,7.6-4.256,7.6l1.6,3.794,92.108-38.763" fill="#5279f7" stroke="#263238" stroke-linecap="round" stroke-linejoin="round" stroke-width="1"/>
            </g>
            <path id="Path_87" data-name="Path 87" d="M201.555,241.211l-32.036,13.482a1.181,1.181,0,0,0,.916,2.178l32.036-13.482a1.181,1.181,0,1,0-.916-2.178Z" fill="#263238"/>
            <g id="Group_91" data-name="Group 91">
              <g id="Group_86" data-name="Group 86">
                <rect id="Rectangle_57" data-name="Rectangle 57" width="4.611" height="4.611" rx="0.626" transform="matrix(0.922, -0.388, 0.388, 0.922, 223.259, 189.662)" fill="#bfbfbf" stroke="#263238" stroke-miterlimit="10" stroke-width="1"/>
                <g id="Group_85" data-name="Group 85">
                  <g id="Group_83" data-name="Group 83">
                    <path id="Path_88" data-name="Path 88" d="M243.669,182.9l-12.8,5.388a.53.53,0,1,1-.411-.977l12.8-5.388a.53.53,0,0,1,.411.977Z" fill="#263238"/>
                  </g>
                  <g id="Group_84" data-name="Group 84">
                    <path id="Path_89" data-name="Path 89" d="M240.657,186.667l-8.9,3.744a.53.53,0,1,1-.411-.977l8.9-3.744a.53.53,0,0,1,.411.977Z" fill="#263238"/>
                  </g>
                </g>
              </g>
              <g id="Group_90" data-name="Group 90">
                <rect id="Rectangle_58" data-name="Rectangle 58" width="4.611" height="4.611" rx="0.626" transform="matrix(0.922, -0.388, 0.388, 0.922, 227.264, 199.18)" fill="#757575" stroke="#263238" stroke-linecap="round" stroke-linejoin="round" stroke-width="1"/>
                <g id="Group_89" data-name="Group 89">
                  <g id="Group_87" data-name="Group 87">
                    <path id="Path_90" data-name="Path 90" d="M247.674,192.416l-12.8,5.388a.53.53,0,0,1-.411-.977l12.8-5.388a.53.53,0,1,1,.411.977Z" fill="#263238"/>
                  </g>
                  <g id="Group_88" data-name="Group 88">
                    <path id="Path_91" data-name="Path 91" d="M244.662,196.185l-8.9,3.744a.53.53,0,0,1-.411-.977l8.9-3.744a.53.53,0,0,1,.411.977Z" fill="#263238"/>
                  </g>
                </g>
              </g>
            </g>
          </g>
          <g id="Group_93" data-name="Group 93">
            <path id="Path_92" data-name="Path 92" d="M264.51,231.656,160.52,275.42a1.181,1.181,0,1,0,.916,2.178l103.991-43.764a1.182,1.182,0,1,0-.917-2.178Z" fill="#263238"/>
            <path id="Path_93" data-name="Path 93" d="M267.806,239.486l-120.922,50.89a1.182,1.182,0,0,0,.917,2.178l120.921-50.89a1.181,1.181,0,0,0-.916-2.178Z" fill="#263238"/>
            <path id="Path_94" data-name="Path 94" d="M271.1,247.317,150.18,298.206a1.181,1.181,0,0,0,.916,2.178l120.922-50.89a1.181,1.181,0,1,0-.917-2.177Z" fill="#263238"/>
            <path id="Path_95" data-name="Path 95" d="M274.4,255.147l-120.922,50.89a1.181,1.181,0,1,0,.917,2.177l120.921-50.889a1.181,1.181,0,1,0-.916-2.178Z" fill="#263238"/>
            <path id="Path_96" data-name="Path 96" d="M226.9,284.353l-70.129,29.514a1.181,1.181,0,0,0,.916,2.178l70.13-29.514a1.182,1.182,0,1,0-.917-2.178Z" fill="#263238"/>
          </g>
          <g id="Group_105" data-name="Group 105">
            <g id="Group_95" data-name="Group 95">
              <g id="Group_94" data-name="Group 94">
                <path id="Path_97" data-name="Path 97" d="M188.276,131.7s1.352,10.615-2.6,12.278c-3.608,1.519-8.361-4.177-12.509-2.431s-.876,16.793-4.878,18.478-8.824-4.5-12.275-3.046-1.365,9.193-4.923,10.691c-2.937,1.236-7.14-4.917-10.5-6.267a2.57,2.57,0,0,0-2-.1c-3.522,1.482-1.774,17.646-4.812,18.925a5.678,5.678,0,0,1-2.7.441,20.106,20.106,0,0,0-3.427-.323,4.43,4.43,0,0,0-1.282.328c-2.594,1.092-2.24,9.6-4.612,10.6s-4.712-.239-7.244.827-2.491,5.488-6.265,7.077l1.6,3.793,92.108-38.763" fill="#bfbfbf" stroke="#263238" stroke-miterlimit="10" stroke-width="1"/>
                <path id="Path_98" data-name="Path 98" d="M194.229,145.85s.844,5.144-1.193,6c-1.689.711-2.727-.279-4.508-.345a5.923,5.923,0,0,0-2.576.529c-1.628.685-2.023,2.882-2.312,5.246-.355,2.906-.545,6.063-2.672,6.959-1.49.627-3.1.26-4.763-.32-2.644-.922-5.428-2.38-8.112-1.25-1.3.548-2.214,1.963-2.922,3.709-1.669,4.131-2.194,10.113-4,10.873-2.571,1.083-7.279-3.337-9.562-2.376s-1.347,4.925-3.2,5.705-2.909-1.52-6.17-.148-1.673,6.188-6.268,8.122-6.615-1.624-11.064.249-3.64,5.242-6.773,6.56-4.459-.973-6.705-.028c-2.175.915-2.773,4.494-2.808,4.717l1.227,2.917,92.108-38.763" fill="#5279f7" stroke="#263238" stroke-miterlimit="10" stroke-width="1"/>
              </g>
              <path id="Path_99" data-name="Path 99" d="M91.2,158.66l18.648,44.311,96.438-40.586" fill="none" stroke="#263238" stroke-linecap="round" stroke-linejoin="round" stroke-width="1"/>
            </g>
            <path id="Path_100" data-name="Path 100" d="M175.9,180.261l-32.036,13.483a1.181,1.181,0,1,0,.916,2.177l32.037-13.482a1.182,1.182,0,0,0-.917-2.178Z" fill="#263238"/>
            <g id="Group_104" data-name="Group 104">
              <g id="Group_99" data-name="Group 99">
                <rect id="Rectangle_59" data-name="Rectangle 59" width="4.611" height="4.611" rx="0.626" transform="matrix(0.922, -0.388, 0.388, 0.922, 196.279, 125.554)" fill="#bfbfbf" stroke="#263238" stroke-miterlimit="10" stroke-width="1"/>
                <g id="Group_98" data-name="Group 98">
                  <g id="Group_96" data-name="Group 96">
                    <path id="Path_101" data-name="Path 101" d="M216.689,118.79l-12.8,5.388a.53.53,0,1,1-.411-.977l12.8-5.388a.53.53,0,1,1,.411.977Z" fill="#263238"/>
                  </g>
                  <g id="Group_97" data-name="Group 97">
                    <path id="Path_102" data-name="Path 102" d="M213.677,122.558l-8.9,3.744a.53.53,0,1,1-.411-.976l8.9-3.744a.53.53,0,1,1,.411.976Z" fill="#263238"/>
                  </g>
                </g>
              </g>
              <g id="Group_103" data-name="Group 103">
                <rect id="Rectangle_60" data-name="Rectangle 60" width="4.611" height="4.611" rx="0.626" transform="matrix(0.922, -0.388, 0.388, 0.922, 200.285, 135.072)" fill="#5279f7" stroke="#263238" stroke-miterlimit="10" stroke-width="1"/>
                <g id="Group_102" data-name="Group 102">
                  <g id="Group_100" data-name="Group 100">
                    <path id="Path_103" data-name="Path 103" d="M220.694,128.308l-12.8,5.388a.53.53,0,0,1-.411-.977l12.8-5.388a.53.53,0,1,1,.411.977Z" fill="#263238"/>
                  </g>
                  <g id="Group_101" data-name="Group 101">
                    <path id="Path_104" data-name="Path 104" d="M217.682,132.076l-8.9,3.744a.53.53,0,1,1-.411-.976l8.9-3.744a.53.53,0,1,1,.411.976Z" fill="#263238"/>
                  </g>
                </g>
              </g>
            </g>
          </g>
          <path id="Path_105" data-name="Path 105" d="M163.81,330.27l-13.87,5.84L123.8,274a15.389,15.389,0,0,0,4.37-8.57c1.56-8.32.46-35.07,21.29-37.83s3.26,44.08,4.22,53.01C154.56,288.74,166.43,312.37,163.81,330.27Z" fill="rgba(0,0,0,0.7)" opacity="0.2"/>
        </g>
        <path id="Path_107" data-name="Path 107" d="M298.37,273.64,163.81,330.27l-13.87,5.84L123.8,274,63.1,129.77,211.53,67.3Z" fill="none" stroke="#263238" stroke-linecap="round" stroke-linejoin="round" stroke-width="1"/>
      </g>
      <g id="Group_109" data-name="Group 109">
        <path id="Path_108" data-name="Path 108" d="M155.431,284c2.334-7.984,11.455-33.614,10.258-44.945a11.075,11.075,0,0,0-.638-2.759c-3.2-8.461-16.285-7.642-21.307-.631-5.517,7.711-10.024,21.586-10.408,30.031a26.112,26.112,0,0,1-3.957,11.857c-.008.019-.008.028-.017.037a29.289,29.289,0,0,1-2.647,3.76L96.868,210.527a40.42,40.42,0,0,0-7.81,8.717,14.259,14.259,0,0,0-2.294,6.07c-.612,6.975-8.512,35.634-11.8,47.729-.063.26-.136.5-.2.744-3.158,11.621,5.18,54.782,2.8,67.318S73.7,353.363,73.35,362.266c-.254,6.5-9.554,26.264-19.972,46.552C47.4,420.445,41.06,432.234,35.83,441.788l76.32-3.169c1.323-9.273,2.678-19.061,3.917-28.534a106.584,106.584,0,0,1,2.28-11.714v-.009c1.685-6.8,3.736-12.951,4.984-16.551a155.941,155.941,0,0,0,3.983-16.1c8.875-9.395,20.515-24.163,23.887-34.167.009-.018.017-.046.025-.065a12.421,12.421,0,0,0,.76-6.494,30.085,30.085,0,0,1-.6-5.463c.009-.009.009-.009,0-.018C151,308.677,153.474,290.649,155.431,284Z" fill="#fff"/>
        <path id="Path_109" data-name="Path 109" d="M129.362,277.586c-2.367,4.75-5.218,9.364-7.038,14.688s-3.774,6.077-9.116,10.242-9.24-2.7-9.24-2.7,7.067-7.344,4.719-11.429-11.145-14.263-10.624-19.874-5.334-18.19-5.334-18.19,13.326-7.825,10.74-16.965c-1.412-5.006-8.389-10.333-14.411-14.118a40.42,40.42,0,0,1,7.81-8.717l29.847,70.819A29.289,29.289,0,0,0,129.362,277.586Z" fill="#5279f7" opacity="0.4"/>
        <path id="Path_110" data-name="Path 110" d="M80.958,321.026c.181.6,4.518,14.934.859,20.9-3.745,6.1-7.421,13.885-5.632,21.992,1.428,6.476-10.571,29.882-22.807,44.895C63.8,388.53,73.1,368.767,73.35,362.266c.347-8.9,1.82-8.633,4.214-21.161s-5.954-55.7-2.8-67.318c.063-.242.136-.484.2-.744,2.33,13.168,7.758,39.4,9.248,47.83C86.113,331.613,81.159,321.45,80.958,321.026Z" fill="#5279f7" opacity="0.4"/>
        <path id="Path_111" data-name="Path 111" d="M108.44,407.5c8.866-38.186,38.719-67.471,42.761-75.949-3.372,10-15.012,24.772-23.887,34.167a155.941,155.941,0,0,1-3.983,16.1c-1.248,3.6-3.3,9.752-4.984,16.551v.009C109.68,408.585,108.44,407.5,108.44,407.5Z" fill="#5279f7" opacity="0.4"/>
        <path id="Path_112" data-name="Path 112" d="M155.431,284c-1.957,6.653-4.435,24.681-4.05,35.512-1.569-6.8-4.593-15.436-5.093-27.466-.847-20.4,10.708-13.084,6.678-23.13s-15.518,2.833-9.857-18.444c4.135-15.532,15.9-15.386,21.942-14.176a11.075,11.075,0,0,1,.638,2.759C166.886,250.382,157.765,276.012,155.431,284Z" fill="#5279f7" opacity="0.4"/>
        <g id="Group_108" data-name="Group 108">
          <path id="Path_113" data-name="Path 113" d="M47.436,420.726c9.573-17.486,18.877-35.475,25.584-54.879.8-2.791-.266-6.424.537-9.215,9.065-25.195-1.216-51.426.469-77.235,1.416-10.17,4.668-20.416,7.919-30.663,1.531-7.417,2.105-15.714,4.553-23.17,2.525-5.62,5.011-12.158,10.37-15.037,10.2,23.375,20.367,46.853,29.847,70.819,4.282-2.476,4.971-8.02,5.7-12.646,2.295-11.126,4.629-21.335,8.836-30.7,4.283-7.532,15.181-10.742,21.871-4.585a10.426,10.426,0,0,1,3.058,7.227c-1.3,12.923-5.356,25.961-9.449,38.08-1.607,5.583-3.252,10.247-3.941,15.791.077,1.835.115,2.753.191,4.588-2.372,9.291-.194,17.474-.73,26.688-2.067,16.632-15.374,28.216-24.973,40.564-2.372,9.291-4.744,18.582-8.033,27.911-4.017,13.955-5.28,27.8-6.651,41.249" fill="none" stroke="#263238" stroke-linecap="round" stroke-linejoin="round" stroke-width="1"/>
          <path id="Path_114" data-name="Path 114" d="M126.717,281.346a62.443,62.443,0,0,0-4.4,10.928c-1.251,4.9-7.583,4.194-10.851,7.239" fill="none" stroke="#263238" stroke-linecap="round" stroke-linejoin="round" stroke-width="1"/>
          <path id="Path_115" data-name="Path 115" d="M102.843,272.719s8.611,3.036,13.622,6.949,8.721,4.869,8.721,4.869" fill="none" stroke="#263238" stroke-linecap="round" stroke-linejoin="round" stroke-width="1"/>
          <path id="Path_116" data-name="Path 116" d="M97.35,251.37s6.948,1.948,12.1-.5a46.221,46.221,0,0,1,1.306-7.387" fill="none" stroke="#263238" stroke-linecap="round" stroke-linejoin="round" stroke-width="1"/>
          <path id="Path_117" data-name="Path 117" d="M111.106,251.877s.072.968,3.615,1.009" fill="none" stroke="#263238" stroke-linecap="round" stroke-linejoin="round" stroke-width="1"/>
          <path id="Path_118" data-name="Path 118" d="M127.312,365.72a47.365,47.365,0,0,0-10.921,17.228" fill="none" stroke="#263238" stroke-linecap="round" stroke-linejoin="round" stroke-width="1"/>
          <path id="Path_119" data-name="Path 119" d="M74.355,275.924c-.311,5.988,6.723,27.276,8.859,37.854s2.932,18.061,2.932,18.061" fill="none" stroke="#263238" stroke-linecap="round" stroke-linejoin="round" stroke-width="1"/>
        </g>
      </g>
    </g>
  </g>
</svg>
